<svg xmlns="http://www.w3.org/2000/svg" version="1.1" xmlns:xlink="http://www.w3.org/1999/xlink" width="980" height="306" viewBox="0 0 980 306" shape-rendering="geometricPrecision" data-left="0" data-right="980" data-top="0" data-bottom="306"><g data-name="page" data-interval-between-stave-lines="8.5" data-font-color="#121212" data-left="0" data-right="980" data-top="0" data-bottom="306"><rect width="980" height="306" stroke="transparent" stroke-width="0.425" stroke-linejoin="" stroke-linecap="" fill="#FDF5E6" vector-effect="none" data-name="page-background" data-left="0" data-right="980" data-top="0" data-bottom="306"></rect><g data-name="pageWithoutBorder" data-left="0" data-right="980" data-top="62.815" data-bottom="268.43"><g data-name="measures" data-left="68" data-right="912" data-top="62.815" data-bottom="268.43" transform="translate(68, 0)"><g data-name="additionalStaveLinesOnPageLine" data-left="78.285" data-right="207.74" data-top="238" data-bottom="238"><line data-name="additionalStaveLine" x1="10.285" y1="238" x2="31.535" y2="238" stroke="#121212" stroke-width="1.445" stroke-linejoin="round" stroke-linecap="round" stroke-dasharray="" vector-effect="none" data-left="78.285" data-right="99.535" data-top="238" data-bottom="238"></line><line data-name="additionalStaveLine" x1="118.49" y1="238" x2="139.74" y2="238" stroke="#121212" stroke-width="1.445" stroke-linejoin="round" stroke-linecap="round" stroke-dasharray="" vector-effect="none" data-left="186.49" data-right="207.74" data-top="238" data-bottom="238"></line></g><g data-name="measure" ref-ids="measure-1,measure-1-1,line-1,every-measure-including-index-0,first-measure-including-index-0" pointer-events="painted" data-left="68" data-right="192.61" data-top="62.815" data-bottom="124.61"><g data-name="startBarLine" ref-ids="opening-barline-1" pointer-events="painted" data-left="68" data-right="69.955" data-top="75.99" data-bottom="111.01"><g data-name="stavesPiece" data-left="68" data-right="69.955" data-top="75.99" data-bottom="111.01"><g data-name="stavePiece" data-left="68" data-right="69.955" data-top="75.99" data-bottom="111.01"><path d="M 0 -0.51 L 1.955 -0.51 L 1.955 0.51 L 0 0.51 L 0 -0.51 M 0 7.99 L 1.955 7.99 L 1.955 9.01 L 0 9.01 L 0 7.99 M 0 16.49 L 1.955 16.49 L 1.955 17.51 L 0 17.51 L 0 16.49 M 0 24.99 L 1.955 24.99 L 1.955 26.01 L 0 26.01 L 0 24.99 M 0 33.49 L 1.955 33.49 L 1.955 34.51 L 0 34.51 L 0 33.49" fill="#343434" fill-rule="evenodd" vector-effect="none" data-left="68" data-right="69.955" data-top="75.99" data-bottom="111.01" transform="translate(0, 76.5)"></path></g></g><polyline points="0 75.99 1.955 75.99 1.955 111.01 0 111.01" fill="#121212" fill-rule="evenodd" vector-effect="none" data-left="68" data-right="69.955" data-top="75.99" data-bottom="111.01"></polyline></g><g data-name="clefsOnStaves" data-left="69.955" data-right="105.655" data-top="64.855" data-bottom="124.61"><g data-name="trebleClef" ref-ids="clef-1-1" pointer-events="painted" data-left="69.955" data-right="105.655" data-top="64.855" data-bottom="124.61"><g data-name="stavePiece" data-left="69.955" data-right="105.655" data-top="75.99" data-bottom="111.01"><path d="M 0 -0.51 L 35.7 -0.51 L 35.7 0.51 L 0 0.51 L 0 -0.51 M 0 7.99 L 35.7 7.99 L 35.7 9.01 L 0 9.01 L 0 7.99 M 0 16.49 L 35.7 16.49 L 35.7 17.51 L 0 17.51 L 0 16.49 M 0 24.99 L 35.7 24.99 L 35.7 26.01 L 0 26.01 L 0 24.99 M 0 33.49 L 35.7 33.49 L 35.7 34.51 L 0 34.51 L 0 33.49" fill="#343434" fill-rule="evenodd" vector-effect="none" data-left="69.955" data-right="105.655" data-top="75.99" data-bottom="111.01" transform="translate(1.955, 76.5)"></path></g><g data-name="clefShape" data-left="76.415" data-right="99.195" data-top="64.855" data-bottom="124.61" transform="translate(8.415, 0)"><path d="M 12.41 68.255 C 13.175 68.255 14.025 68.17 14.705 68.085 C 15.13 68 15.13 68 15.215 68.34 C 15.64 70.635 16.15 73.61 16.15 75.225 C 16.15 80.24 12.75 80.835 10.71 80.835 C 8.925 80.835 7.99 80.325 7.99 79.9 C 7.99 79.645 8.33 79.56 9.095 79.305 C 10.2 78.965 11.39 78.03 11.39 76.075 C 11.39 74.205 10.2 72.59 8.16 72.59 C 5.865 72.59 4.505 74.46 4.505 76.5 C 4.505 78.71 5.78 82.11 10.965 82.11 C 13.26 82.11 17.68 81.09 17.68 75.31 C 17.68 73.355 17 70.125 16.66 68 C 16.575 67.575 16.66 67.66 17.085 67.405 C 20.57 66.045 22.78 63.155 22.78 59.33 C 22.78 54.995 19.635 51.17 14.62 51.17 C 13.77 51.17 13.77 51.17 13.6 50.49 L 12.75 45.56 C 12.75 45.22 12.75 45.135 13.005 44.965 C 16.66 41.48 19.465 37.23 19.465 31.96 C 19.465 29.07 18.615 26.095 17.255 24.055 C 16.745 23.29 15.81 22.355 15.47 22.355 C 14.96 22.355 13.94 23.29 13.26 23.97 C 10.71 26.775 9.945 31.025 9.945 34.595 C 9.945 36.55 10.2 38.76 10.37 40.12 C 10.455 40.545 10.54 40.63 10.115 40.97 C 5.185 45.05 0 49.895 0 56.78 C 0 62.645 4.08 68.255 12.41 68.255 Z M 2.72 58.99 C 2.72 57.035 3.06 54.315 5.865 51.17 C 7.905 48.875 9.52 47.6 11.05 46.325 C 11.39 46.07 11.475 46.07 11.56 46.41 L 12.24 50.83 C 12.41 51.425 12.41 51.425 11.73 51.595 C 8.755 52.615 6.8 55.335 6.8 58.225 C 6.8 61.285 8.415 63.41 10.71 64.26 C 11.05 64.345 11.39 64.43 11.645 64.43 C 11.9 64.43 12.07 64.26 12.07 64.09 C 12.07 63.835 11.815 63.75 11.56 63.58 C 10.115 62.985 9.095 61.54 9.095 60.01 C 9.095 58.055 10.455 56.61 12.495 56.015 C 13.09 55.845 13.09 55.93 13.175 56.27 L 14.875 66.385 C 14.96 66.81 14.96 66.81 14.45 66.895 C 13.855 66.98 13.175 67.065 12.495 67.065 C 6.545 67.065 2.72 63.75 2.72 58.99 Z M 15.98 27.625 C 17.085 27.625 18.02 28.56 18.02 30.43 C 18.02 34.17 14.79 37.23 12.07 39.61 C 11.9 39.78 11.73 39.78 11.645 39.355 C 11.56 38.42 11.475 37.315 11.475 36.21 C 11.475 30.94 13.94 27.625 15.98 27.625 Z M 14.96 55.76 C 17.765 55.93 20.06 58.31 20.06 61.285 C 20.06 63.41 18.7 65.11 16.83 66.13 C 16.405 66.3 16.32 66.3 16.32 65.875 L 14.62 56.185 C 14.535 55.76 14.62 55.675 14.96 55.76 Z" fill="#121212" fill-rule="evenodd" vector-effect="none" data-left="76.415" data-right="99.195" data-top="64.855" data-bottom="124.61" transform="translate(0, 42.5)"></path></g></g></g><g data-name="keySignaturesOnStaves" data-left="105.655" data-right="105.655" data-top="75.99" data-bottom="111.01"><g data-name="keySignature" ref-ids="key-signature-1" pointer-events="painted" data-left="105.655" data-right="105.655" data-top="75.99" data-bottom="111.01"><g data-name="stavePiece" data-left="105.655" data-right="105.655" data-top="75.99" data-bottom="111.01"><path d="M 0 -0.51 L 0 -0.51 L 0 0.51 L 0 0.51 L 0 -0.51 M 0 7.99 L 0 7.99 L 0 9.01 L 0 9.01 L 0 7.99 M 0 16.49 L 0 16.49 L 0 17.51 L 0 17.51 L 0 16.49 M 0 24.99 L 0 24.99 L 0 26.01 L 0 26.01 L 0 24.99 M 0 33.49 L 0 33.49 L 0 34.51 L 0 34.51 L 0 33.49" fill="#343434" fill-rule="evenodd" vector-effect="none" data-left="105.655" data-right="105.655" data-top="75.99" data-bottom="111.01" transform="translate(37.655, 76.5)"></path></g></g></g><g data-name="voicesWithStaveLines" data-left="105.655" data-right="190.655" data-top="62.815" data-bottom="111.01"><g data-name="stavesPiece" data-left="105.655" data-right="190.655" data-top="75.99" data-bottom="111.01"><g data-name="stavePiece" ref-ids="stave-lines-1-1,stave-1,stave-1-1,stave-1-1-1,stave-in-all-measures-on-line-1-1,all-staves-in-measure-1" pointer-events="painted" data-left="68" data-right="192.61" data-top="75.99" data-bottom="111.01"><path d="M 0 -0.51 L 85 -0.51 L 85 0.51 L 0 0.51 L 0 -0.51 M 0 7.99 L 85 7.99 L 85 9.01 L 0 9.01 L 0 7.99 M 0 16.49 L 85 16.49 L 85 17.51 L 0 17.51 L 0 16.49 M 0 24.99 L 85 24.99 L 85 26.01 L 0 26.01 L 0 24.99 M 0 33.49 L 85 33.49 L 85 34.51 L 0 34.51 L 0 33.49" fill="#343434" fill-rule="evenodd" vector-effect="none" data-left="105.655" data-right="190.655" data-top="75.99" data-bottom="111.01" transform="translate(37.655, 76.5)"></path></g></g><g data-name="voices" data-left="105.655" data-right="190.655" data-top="62.815" data-bottom="102.255"><g data-name="voicesBody" data-left="105.655" data-right="190.655" data-top="62.815" data-bottom="102.255"><g data-name="crossStaveUnit" data-left="118.405" data-right="130.815" data-top="67.065" data-bottom="102.255"><g data-name="crossVoiceUnitOnOneStave" data-left="118.405" data-right="130.815" data-top="67.065" data-bottom="102.255"><g data-name="singleUnit" ref-ids="all-units,all-units-on-line-1,unit-1-1-1-1,voice-1,voice-1-1,voice-1-1-1,voice-1-1-1-1,voice-in-measure-on-all-staves-1-1-1,voice-in-all-measures-and-on-all-staves-on-line-1-1" pointer-events="painted" data-left="118.405" data-right="130.815" data-top="67.065" data-bottom="102.255"><g data-name="singleUnitBodyParts" ref-ids="unit-1-1-1-1" pointer-events="painted" data-left="118.405" data-right="130.815" data-top="92.99" data-bottom="102.255"><g data-name="singleUnitBody" data-left="118.405" data-right="130.815" data-top="92.99" data-bottom="102.255"><g data-name="noteBody" ref-ids="note-1-1-1-1-1,note-with-index-1-1-1-1-1" pointer-events="painted" data-left="118.405" data-right="130.815" data-top="92.99" data-bottom="102.255"><path d="M 4.08 13.94 C 11.05 13.94 12.41 9.01 12.41 7.735 C 12.41 5.865 10.71 4.675 8.245 4.675 C 1.955 4.675 0 8.925 0 10.88 C 0 12.835 1.785 13.94 4.08 13.94 Z M 1.19 10.965 C 1.19 9.01 7.395 6.205 9.35 6.205 C 10.115 6.205 11.135 6.715 11.135 7.65 C 11.135 8.415 10.2 9.35 7.31 11.05 C 5.355 12.155 4.08 12.58 3.145 12.58 C 2.295 12.58 1.785 12.155 1.53 11.73 C 1.36 11.475 1.19 11.22 1.19 10.965 Z" fill="#121212" fill-rule="evenodd" vector-effect="none" data-left="118.405" data-right="130.815" data-top="92.99" data-bottom="102.255" transform="translate(50.405, 88.315)"></path></g></g></g><line data-name="stem" x1="62.22" y1="67.065" x2="62.22" y2="95.88" stroke="#121212" stroke-width="1.19" stroke-linejoin="round" stroke-linecap="round" stroke-dasharray="" vector-effect="none" ref-ids="stem-1-1-1-1" pointer-events="painted" data-left="130.22" data-right="130.22" data-top="67.065" data-bottom="95.88"></line></g></g></g><g data-name="crossStaveUnit" data-left="144.585" data-right="156.995" data-top="62.815" data-bottom="98.005"><g data-name="crossVoiceUnitOnOneStave" data-left="144.585" data-right="156.995" data-top="62.815" data-bottom="98.005"><g data-name="singleUnit" ref-ids="all-units,all-units-on-line-1,unit-1-1-1-2,voice-1,voice-1-1,voice-1-1-1,voice-1-1-1-1,voice-in-measure-on-all-staves-1-1-1,voice-in-all-measures-and-on-all-staves-on-line-1-1" pointer-events="painted" data-left="144.585" data-right="156.995" data-top="62.815" data-bottom="98.005"><g data-name="singleUnitBodyParts" ref-ids="unit-1-1-1-2" pointer-events="painted" data-left="144.585" data-right="156.995" data-top="88.74" data-bottom="98.005"><g data-name="singleUnitBody" data-left="144.585" data-right="156.995" data-top="88.74" data-bottom="98.005"><g data-name="noteBody" ref-ids="note-1-1-1-2-1,note-with-index-1-1-1-2-1" pointer-events="painted" data-left="144.585" data-right="156.995" data-top="88.74" data-bottom="98.005"><path d="M 4.08 13.94 C 11.05 13.94 12.41 9.01 12.41 7.735 C 12.41 5.865 10.71 4.675 8.245 4.675 C 1.955 4.675 0 8.925 0 10.88 C 0 12.835 1.785 13.94 4.08 13.94 Z M 1.19 10.965 C 1.19 9.01 7.395 6.205 9.35 6.205 C 10.115 6.205 11.135 6.715 11.135 7.65 C 11.135 8.415 10.2 9.35 7.31 11.05 C 5.355 12.155 4.08 12.58 3.145 12.58 C 2.295 12.58 1.785 12.155 1.53 11.73 C 1.36 11.475 1.19 11.22 1.19 10.965 Z" fill="#121212" fill-rule="evenodd" vector-effect="none" data-left="144.585" data-right="156.995" data-top="88.74" data-bottom="98.005" transform="translate(76.585, 84.065)"></path></g></g></g><line data-name="stem" x1="88.4" y1="62.815" x2="88.4" y2="91.63" stroke="#121212" stroke-width="1.19" stroke-linejoin="round" stroke-linecap="round" stroke-dasharray="" vector-effect="none" ref-ids="stem-1-1-1-2" pointer-events="painted" data-left="156.4" data-right="156.4" data-top="62.815" data-bottom="91.63"></line></g></g></g></g></g></g><g data-name="barLine" ref-ids="closing-barline-1" pointer-events="painted" data-left="190.655" data-right="192.61" data-top="75.99" data-bottom="111.01"><g data-name="stavesPiece" data-left="190.655" data-right="192.61" data-top="75.99" data-bottom="111.01"><g data-name="stavePiece" data-left="190.655" data-right="192.61" data-top="75.99" data-bottom="111.01"><path d="M 0 -0.51 L 1.955 -0.51 L 1.955 0.51 L 0 0.51 L 0 -0.51 M 0 7.99 L 1.955 7.99 L 1.955 9.01 L 0 9.01 L 0 7.99 M 0 16.49 L 1.955 16.49 L 1.955 17.51 L 0 17.51 L 0 16.49 M 0 24.99 L 1.955 24.99 L 1.955 26.01 L 0 26.01 L 0 24.99 M 0 33.49 L 1.955 33.49 L 1.955 34.51 L 0 34.51 L 0 33.49" fill="#343434" fill-rule="evenodd" vector-effect="none" data-left="190.655" data-right="192.61" data-top="75.99" data-bottom="111.01" transform="translate(122.655, 76.5)"></path></g></g><polyline points="124.61 75.99 122.655 75.99 122.655 111.01 124.61 111.01" fill="#121212" fill-rule="evenodd" vector-effect="none" data-left="190.655" data-right="192.61" data-top="75.99" data-bottom="111.01"></polyline></g></g><g data-name="measure" ref-ids="measure-2,measure-1-2,line-1,every-measure,every-measure-including-index-0,last-measure,first-or-last-measure" pointer-events="painted" data-left="192.61" data-right="912" data-top="62.815" data-bottom="111.01"><g data-name="barLine" ref-ids="closing-barline-2" pointer-events="painted" data-left="910.045" data-right="912" data-top="75.99" data-bottom="111.01" transform="translate(717.435, 0)"><g data-name="stavesPiece" data-left="910.045" data-right="912" data-top="75.99" data-bottom="111.01"><g data-name="stavePiece" data-left="910.045" data-right="912" data-top="75.99" data-bottom="111.01"><path d="M 0 -0.51 L 1.955 -0.51 L 1.955 0.51 L 0 0.51 L 0 -0.51 M 0 7.99 L 1.955 7.99 L 1.955 9.01 L 0 9.01 L 0 7.99 M 0 16.49 L 1.955 16.49 L 1.955 17.51 L 0 17.51 L 0 16.49 M 0 24.99 L 1.955 24.99 L 1.955 26.01 L 0 26.01 L 0 24.99 M 0 33.49 L 1.955 33.49 L 1.955 34.51 L 0 34.51 L 0 33.49" fill="#343434" fill-rule="evenodd" vector-effect="none" data-left="910.045" data-right="912" data-top="75.99" data-bottom="111.01" transform="translate(124.61, 76.5)"></path></g></g><polyline points="126.565 75.99 124.61 75.99 124.61 111.01 126.565 111.01" fill="#121212" fill-rule="evenodd" vector-effect="none" data-left="910.045" data-right="912" data-top="75.99" data-bottom="111.01"></polyline></g><g data-name="voicesWithStaveLines" data-left="192.61" data-right="910.045" data-top="62.815" data-bottom="111.01"><g data-name="stavesPiece" data-left="192.61" data-right="910.045" data-top="75.99" data-bottom="111.01"><g data-name="stavePiece" ref-ids="stave-lines-2-1,stave-1,stave-2-1,stave-1-2-1,stave-in-all-measures-on-line-1-1,all-staves-in-measure-2" pointer-events="painted" data-left="192.61" data-right="912" data-top="75.99" data-bottom="111.01"><path d="M 0 -0.51 L 717.435 -0.51 L 717.435 0.51 L 0 0.51 L 0 -0.51 M 0 7.99 L 717.435 7.99 L 717.435 9.01 L 0 9.01 L 0 7.99 M 0 16.49 L 717.435 16.49 L 717.435 17.51 L 0 17.51 L 0 16.49 M 0 24.99 L 717.435 24.99 L 717.435 26.01 L 0 26.01 L 0 24.99 M 0 33.49 L 717.435 33.49 L 717.435 34.51 L 0 34.51 L 0 33.49" fill="#343434" fill-rule="evenodd" vector-effect="none" data-left="192.61" data-right="910.045" data-top="75.99" data-bottom="111.01" transform="translate(124.61, 76.5)"></path></g></g><g data-name="voices" data-left="192.61" data-right="910.045" data-top="62.815" data-bottom="102.255"><g data-name="voicesBody" data-left="192.61" data-right="910.045" data-top="62.815" data-bottom="102.255" transform="translate(21.25, 0)"><g data-name="crossStaveUnit" data-left="226.61" data-right="239.02" data-top="67.065" data-bottom="102.255"><g data-name="crossVoiceUnitOnOneStave" data-left="226.61" data-right="239.02" data-top="67.065" data-bottom="102.255"><g data-name="singleUnit" ref-ids="all-units,all-units-on-line-1,unit-2-1-1-1,voice-1,voice-1-1,voice-2-1-1,voice-1-2-1-1,voice-in-measure-on-all-staves-1-2-1,voice-in-all-measures-and-on-all-staves-on-line-1-1" pointer-events="painted" data-left="226.61" data-right="239.02" data-top="67.065" data-bottom="102.255"><g data-name="singleUnitBodyParts" ref-ids="unit-2-1-1-1" pointer-events="painted" data-left="226.61" data-right="239.02" data-top="92.99" data-bottom="102.255"><g data-name="singleUnitBody" data-left="226.61" data-right="239.02" data-top="92.99" data-bottom="102.255"><g data-name="noteBody" ref-ids="note-2-1-1-1-1,note-with-index-2-1-1-1-1" pointer-events="painted" data-left="226.61" data-right="239.02" data-top="92.99" data-bottom="102.255"><path d="M 4.08 13.94 C 11.05 13.94 12.41 9.01 12.41 7.735 C 12.41 5.865 10.71 4.675 8.245 4.675 C 1.955 4.675 0 8.925 0 10.88 C 0 12.835 1.785 13.94 4.08 13.94 Z M 1.19 10.965 C 1.19 9.01 7.395 6.205 9.35 6.205 C 10.115 6.205 11.135 6.715 11.135 7.65 C 11.135 8.415 10.2 9.35 7.31 11.05 C 5.355 12.155 4.08 12.58 3.145 12.58 C 2.295 12.58 1.785 12.155 1.53 11.73 C 1.36 11.475 1.19 11.22 1.19 10.965 Z" fill="#121212" fill-rule="evenodd" vector-effect="none" data-left="226.61" data-right="239.02" data-top="92.99" data-bottom="102.255" transform="translate(137.36, 88.315)"></path></g></g></g><line data-name="stem" x1="149.175" y1="67.065" x2="149.175" y2="95.88" stroke="#121212" stroke-width="1.19" stroke-linejoin="round" stroke-linecap="round" stroke-dasharray="" vector-effect="none" ref-ids="stem-2-1-1-1" pointer-events="painted" data-left="238.425" data-right="238.425" data-top="67.065" data-bottom="95.88"></line></g></g></g><g data-name="crossStaveUnit" data-left="252.79" data-right="265.2" data-top="62.815" data-bottom="98.005"><g data-name="crossVoiceUnitOnOneStave" data-left="252.79" data-right="265.2" data-top="62.815" data-bottom="98.005"><g data-name="singleUnit" ref-ids="all-units,all-units-on-line-1,unit-2-1-1-2,voice-1,voice-1-1,voice-2-1-1,voice-1-2-1-1,voice-in-measure-on-all-staves-1-2-1,voice-in-all-measures-and-on-all-staves-on-line-1-1" pointer-events="painted" data-left="252.79" data-right="265.2" data-top="62.815" data-bottom="98.005"><g data-name="singleUnitBodyParts" ref-ids="unit-2-1-1-2" pointer-events="painted" data-left="252.79" data-right="265.2" data-top="88.74" data-bottom="98.005"><g data-name="singleUnitBody" data-left="252.79" data-right="265.2" data-top="88.74" data-bottom="98.005"><g data-name="noteBody" ref-ids="note-2-1-1-2-1,note-with-index-2-1-1-2-1" pointer-events="painted" data-left="252.79" data-right="265.2" data-top="88.74" data-bottom="98.005"><path d="M 4.08 13.94 C 11.05 13.94 12.41 9.01 12.41 7.735 C 12.41 5.865 10.71 4.675 8.245 4.675 C 1.955 4.675 0 8.925 0 10.88 C 0 12.835 1.785 13.94 4.08 13.94 Z M 1.19 10.965 C 1.19 9.01 7.395 6.205 9.35 6.205 C 10.115 6.205 11.135 6.715 11.135 7.65 C 11.135 8.415 10.2 9.35 7.31 11.05 C 5.355 12.155 4.08 12.58 3.145 12.58 C 2.295 12.58 1.785 12.155 1.53 11.73 C 1.36 11.475 1.19 11.22 1.19 10.965 Z" fill="#121212" fill-rule="evenodd" vector-effect="none" data-left="252.79" data-right="265.2" data-top="88.74" data-bottom="98.005" transform="translate(163.54, 84.065)"></path></g></g></g><line data-name="stem" x1="175.355" y1="62.815" x2="175.355" y2="91.63" stroke="#121212" stroke-width="1.19" stroke-linejoin="round" stroke-linecap="round" stroke-dasharray="" vector-effect="none" ref-ids="stem-2-1-1-2" pointer-events="painted" data-left="264.605" data-right="264.605" data-top="62.815" data-bottom="91.63"></line></g></g></g></g></g></g></g><g data-name="additionalMeasureElementsOnPageLine" data-left="124.61" data-right="232.815" data-top="80.6185569828" data-bottom="90.865"><path d="M 56.61 90.865 C 56.6100304007 90.8649695993 56.6100666666 90.8649333333 56.6101 90.8649 C 70.2719444034 77.2031093104 108.9930555939 77.2031093104 122.6549 90.8649 C 122.6549333334 90.8649333333 122.6549999984 90.8649999984 122.655 90.865 C 108.9930555939 78.9031093104 70.2719444034 78.9031093104 56.61 90.865" fill="#121212" fill-rule="evenodd" vector-effect="none" stroke="#121212" stroke-width="1.1475" stroke-linejoin="round" stroke-linecap="round" ref-ids="tie-after-1-1-1-1" pointer-events="painted" data-left="124.61" data-right="190.655" data-top="80.6185569828" data-bottom="90.865"></path><path d="M 130.135 90.865 C 130.1350318332 90.8649681668 130.1350666666 90.8649333332 130.1351 90.8649 C 137.8174353167 83.1826148413 157.1325646844 83.1826148413 164.8149 90.8649 C 164.8149333334 90.8649333332 164.8149999984 90.8649999984 164.815 90.865 C 157.1325646844 84.8826148413 137.8174353167 84.8826148413 130.135 90.865" fill="#121212" fill-rule="evenodd" vector-effect="none" stroke="#121212" stroke-width="1.1475" stroke-linejoin="round" stroke-linecap="round" ref-ids="tie-before-2-1-1-1" pointer-events="painted" data-left="198.135" data-right="232.815" data-top="85.103186131" data-bottom="90.865"></path></g><g data-name="measure" ref-ids="measure-3,measure-2-1,line-2,every-measure,every-measure-including-index-0,first-measure,first-or-last-measure,first-measure-including-index-0" pointer-events="painted" data-left="68" data-right="156.91" data-top="179.2840895777" data-bottom="268.43"><g data-name="startBarLine" ref-ids="opening-barline-3" pointer-events="painted" data-left="68" data-right="69.955" data-top="194.99" data-bottom="230.01"><g data-name="stavesPiece" data-left="68" data-right="69.955" data-top="194.99" data-bottom="230.01"><g data-name="stavePiece" data-left="68" data-right="69.955" data-top="194.99" data-bottom="230.01"><path d="M 0 -0.51 L 1.955 -0.51 L 1.955 0.51 L 0 0.51 L 0 -0.51 M 0 7.99 L 1.955 7.99 L 1.955 9.01 L 0 9.01 L 0 7.99 M 0 16.49 L 1.955 16.49 L 1.955 17.51 L 0 17.51 L 0 16.49 M 0 24.99 L 1.955 24.99 L 1.955 26.01 L 0 26.01 L 0 24.99 M 0 33.49 L 1.955 33.49 L 1.955 34.51 L 0 34.51 L 0 33.49" fill="#343434" fill-rule="evenodd" vector-effect="none" data-left="68" data-right="69.955" data-top="194.99" data-bottom="230.01" transform="translate(0, 195.5)"></path></g></g><polyline points="0 194.99 1.955 194.99 1.955 230.01 0 230.01" fill="#121212" fill-rule="evenodd" vector-effect="none" data-left="68" data-right="69.955" data-top="194.99" data-bottom="230.01"></polyline></g><g data-name="voicesWithStaveLines" data-left="69.955" data-right="154.955" data-top="181.815" data-bottom="268.43"><g data-name="stavesPiece" data-left="69.955" data-right="154.955" data-top="194.99" data-bottom="230.01"><g data-name="stavePiece" ref-ids="stave-lines-3-1,stave-1,stave-3-1,stave-2-1-1,stave-in-all-measures-on-line-2-1,all-staves-in-measure-3" pointer-events="painted" data-left="68" data-right="156.91" data-top="194.99" data-bottom="230.01"><path d="M 0 -0.51 L 85 -0.51 L 85 0.51 L 0 0.51 L 0 -0.51 M 0 7.99 L 85 7.99 L 85 9.01 L 0 9.01 L 0 7.99 M 0 16.49 L 85 16.49 L 85 17.51 L 0 17.51 L 0 16.49 M 0 24.99 L 85 24.99 L 85 26.01 L 0 26.01 L 0 24.99 M 0 33.49 L 85 33.49 L 85 34.51 L 0 34.51 L 0 33.49" fill="#343434" fill-rule="evenodd" vector-effect="none" data-left="69.955" data-right="154.955" data-top="194.99" data-bottom="230.01" transform="translate(1.955, 195.5)"></path></g></g><g data-name="voices" data-left="69.955" data-right="154.955" data-top="181.815" data-bottom="268.43"><g data-name="voicesBody" data-left="69.955" data-right="154.955" data-top="179.2840895777" data-bottom="268.43"><g data-name="crossStaveUnit" data-left="82.705" data-right="95.115" data-top="186.065" data-bottom="268.43"><g data-name="crossVoiceUnitOnOneStave" data-left="82.705" data-right="95.115" data-top="186.065" data-bottom="268.43"><g data-name="singleUnit" ref-ids="all-units,all-units-on-line-2,unit-3-1-1-1,voice-1,voice-1-1,voice-3-1-1,voice-2-1-1-1,voice-in-measure-on-all-staves-2-1-1,voice-in-all-measures-and-on-all-staves-on-line-2-1" pointer-events="painted" data-left="82.705" data-right="95.115" data-top="179.2840895777" data-bottom="221.255"><g data-name="singleUnitBodyParts" ref-ids="unit-3-1-1-1" pointer-events="painted" data-left="82.705" data-right="95.115" data-top="211.99" data-bottom="221.255"><g data-name="singleUnitBody" data-left="82.705" data-right="95.115" data-top="211.99" data-bottom="221.255"><g data-name="noteBody" ref-ids="note-3-1-1-1-1,note-with-index-3-1-1-1-1" pointer-events="painted" data-left="82.705" data-right="95.115" data-top="211.99" data-bottom="221.255"><path d="M 4.08 13.94 C 11.05 13.94 12.41 9.01 12.41 7.735 C 12.41 5.865 10.71 4.675 8.245 4.675 C 1.955 4.675 0 8.925 0 10.88 C 0 12.835 1.785 13.94 4.08 13.94 Z M 1.19 10.965 C 1.19 9.01 7.395 6.205 9.35 6.205 C 10.115 6.205 11.135 6.715 11.135 7.65 C 11.135 8.415 10.2 9.35 7.31 11.05 C 5.355 12.155 4.08 12.58 3.145 12.58 C 2.295 12.58 1.785 12.155 1.53 11.73 C 1.36 11.475 1.19 11.22 1.19 10.965 Z" fill="#121212" fill-rule="evenodd" vector-effect="none" data-left="82.705" data-right="95.115" data-top="211.99" data-bottom="221.255" transform="translate(14.705, 207.315)"></path></g></g></g><line data-name="stem" x1="26.52" y1="186.065" x2="26.52" y2="214.88" stroke="#121212" stroke-width="1.19" stroke-linejoin="round" stroke-linecap="round" stroke-dasharray="" vector-effect="none" ref-ids="stem-3-1-1-1" pointer-events="painted" data-left="94.52" data-right="94.52" data-top="186.065" data-bottom="214.88"></line></g><g data-name="singleUnit" ref-ids="all-units,all-units-on-line-2,unit-3-1-2-1,voice-2,voice-1-2,voice-3-1-2,voice-2-1-1-2,voice-in-measure-on-all-staves-2-1-2,voice-in-all-measures-and-on-all-staves-on-line-2-2" pointer-events="painted" data-left="82.705" data-right="95.115" data-top="233.24" data-bottom="268.43"><g data-name="singleUnitBodyParts" ref-ids="unit-3-1-2-1" pointer-events="painted" data-left="82.705" data-right="95.115" data-top="233.24" data-bottom="242.505"><g data-name="singleUnitBody" data-left="82.705" data-right="95.115" data-top="233.24" data-bottom="242.505"><g data-name="noteBody" ref-ids="note-3-1-2-1-1,note-with-index-3-1-2-1-1" pointer-events="painted" data-left="82.705" data-right="95.115" data-top="233.24" data-bottom="242.505"><path d="M 4.08 13.94 C 11.05 13.94 12.41 9.01 12.41 7.735 C 12.41 5.865 10.71 4.675 8.245 4.675 C 1.955 4.675 0 8.925 0 10.88 C 0 12.835 1.785 13.94 4.08 13.94 Z M 1.19 10.965 C 1.19 9.01 7.395 6.205 9.35 6.205 C 10.115 6.205 11.135 6.715 11.135 7.65 C 11.135 8.415 10.2 9.35 7.31 11.05 C 5.355 12.155 4.08 12.58 3.145 12.58 C 2.295 12.58 1.785 12.155 1.53 11.73 C 1.36 11.475 1.19 11.22 1.19 10.965 Z" fill="#121212" fill-rule="evenodd" vector-effect="none" data-left="82.705" data-right="95.115" data-top="233.24" data-bottom="242.505" transform="translate(14.705, 228.565)"></path></g></g></g><line data-name="stem" x1="15.3" y1="239.615" x2="15.3" y2="268.43" stroke="#121212" stroke-width="1.19" stroke-linejoin="round" stroke-linecap="round" stroke-dasharray="" vector-effect="none" ref-ids="stem-3-1-2-1" pointer-events="painted" data-left="83.3" data-right="83.3" data-top="239.615" data-bottom="268.43"></line></g></g></g><g data-name="crossStaveUnit" data-left="108.885" data-right="121.295" data-top="181.815" data-bottom="264.18"><g data-name="crossVoiceUnitOnOneStave" data-left="108.885" data-right="121.295" data-top="181.815" data-bottom="264.18"><g data-name="singleUnit" ref-ids="all-units,all-units-on-line-2,unit-3-1-1-2,voice-1,voice-1-1,voice-3-1-1,voice-2-1-1-1,voice-in-measure-on-all-staves-2-1-1,voice-in-all-measures-and-on-all-staves-on-line-2-1" pointer-events="painted" data-left="108.885" data-right="121.295" data-top="181.815" data-bottom="217.005"><g data-name="singleUnitBodyParts" ref-ids="unit-3-1-1-2" pointer-events="painted" data-left="108.885" data-right="121.295" data-top="207.74" data-bottom="217.005"><g data-name="singleUnitBody" data-left="108.885" data-right="121.295" data-top="207.74" data-bottom="217.005"><g data-name="noteBody" ref-ids="note-3-1-1-2-1,note-with-index-3-1-1-2-1" pointer-events="painted" data-left="108.885" data-right="121.295" data-top="207.74" data-bottom="217.005"><path d="M 4.08 13.94 C 11.05 13.94 12.41 9.01 12.41 7.735 C 12.41 5.865 10.71 4.675 8.245 4.675 C 1.955 4.675 0 8.925 0 10.88 C 0 12.835 1.785 13.94 4.08 13.94 Z M 1.19 10.965 C 1.19 9.01 7.395 6.205 9.35 6.205 C 10.115 6.205 11.135 6.715 11.135 7.65 C 11.135 8.415 10.2 9.35 7.31 11.05 C 5.355 12.155 4.08 12.58 3.145 12.58 C 2.295 12.58 1.785 12.155 1.53 11.73 C 1.36 11.475 1.19 11.22 1.19 10.965 Z" fill="#121212" fill-rule="evenodd" vector-effect="none" data-left="108.885" data-right="121.295" data-top="207.74" data-bottom="217.005" transform="translate(40.885, 203.065)"></path></g></g></g><line data-name="stem" x1="52.7" y1="181.815" x2="52.7" y2="210.63" stroke="#121212" stroke-width="1.19" stroke-linejoin="round" stroke-linecap="round" stroke-dasharray="" vector-effect="none" ref-ids="stem-3-1-1-2" pointer-events="painted" data-left="120.7" data-right="120.7" data-top="181.815" data-bottom="210.63"></line></g><g data-name="singleUnit" ref-ids="all-units,all-units-on-line-2,unit-3-1-2-2,voice-2,voice-1-2,voice-3-1-2,voice-2-1-1-2,voice-in-measure-on-all-staves-2-1-2,voice-in-all-measures-and-on-all-staves-on-line-2-2" pointer-events="painted" data-left="108.885" data-right="121.295" data-top="228.99" data-bottom="264.18"><g data-name="singleUnitBodyParts" ref-ids="unit-3-1-2-2" pointer-events="painted" data-left="108.885" data-right="121.295" data-top="228.99" data-bottom="238.255"><g data-name="singleUnitBody" data-left="108.885" data-right="121.295" data-top="228.99" data-bottom="238.255"><g data-name="noteBody" ref-ids="note-3-1-2-2-1,note-with-index-3-1-2-2-1" pointer-events="painted" data-left="108.885" data-right="121.295" data-top="228.99" data-bottom="238.255"><path d="M 4.08 13.94 C 11.05 13.94 12.41 9.01 12.41 7.735 C 12.41 5.865 10.71 4.675 8.245 4.675 C 1.955 4.675 0 8.925 0 10.88 C 0 12.835 1.785 13.94 4.08 13.94 Z M 1.19 10.965 C 1.19 9.01 7.395 6.205 9.35 6.205 C 10.115 6.205 11.135 6.715 11.135 7.65 C 11.135 8.415 10.2 9.35 7.31 11.05 C 5.355 12.155 4.08 12.58 3.145 12.58 C 2.295 12.58 1.785 12.155 1.53 11.73 C 1.36 11.475 1.19 11.22 1.19 10.965 Z" fill="#121212" fill-rule="evenodd" vector-effect="none" data-left="108.885" data-right="121.295" data-top="228.99" data-bottom="238.255" transform="translate(40.885, 224.315)"></path></g></g></g><line data-name="stem" x1="41.48" y1="235.365" x2="41.48" y2="264.18" stroke="#121212" stroke-width="1.19" stroke-linejoin="round" stroke-linecap="round" stroke-dasharray="" vector-effect="none" ref-ids="stem-3-1-2-2" pointer-events="painted" data-left="109.48" data-right="109.48" data-top="235.365" data-bottom="264.18"></line></g></g></g></g></g></g><g data-name="barLine" ref-ids="closing-barline-3" pointer-events="painted" data-left="154.955" data-right="156.91" data-top="194.99" data-bottom="230.01"><g data-name="stavesPiece" data-left="154.955" data-right="156.91" data-top="194.99" data-bottom="230.01"><g data-name="stavePiece" data-left="154.955" data-right="156.91" data-top="194.99" data-bottom="230.01"><path d="M 0 -0.51 L 1.955 -0.51 L 1.955 0.51 L 0 0.51 L 0 -0.51 M 0 7.99 L 1.955 7.99 L 1.955 9.01 L 0 9.01 L 0 7.99 M 0 16.49 L 1.955 16.49 L 1.955 17.51 L 0 17.51 L 0 16.49 M 0 24.99 L 1.955 24.99 L 1.955 26.01 L 0 26.01 L 0 24.99 M 0 33.49 L 1.955 33.49 L 1.955 34.51 L 0 34.51 L 0 33.49" fill="#343434" fill-rule="evenodd" vector-effect="none" data-left="154.955" data-right="156.91" data-top="194.99" data-bottom="230.01" transform="translate(86.955, 195.5)"></path></g></g><polyline points="88.91 194.99 86.955 194.99 86.955 230.01 88.91 230.01" fill="#121212" fill-rule="evenodd" vector-effect="none" data-left="154.955" data-right="156.91" data-top="194.99" data-bottom="230.01"></polyline></g></g><g data-name="measure" ref-ids="measure-4,measure-2-2,line-2,every-measure,every-measure-including-index-0,last-measure,first-or-last-measure,last-measure-on-page" pointer-events="painted" data-left="156.91" data-right="912" data-top="181.815" data-bottom="268.43"><g data-name="barLine" ref-ids="closing-barline-4" pointer-events="painted" data-left="910.045" data-right="912" data-top="194.99" data-bottom="230.01" transform="translate(753.135, 0)"><g data-name="stavesPiece" data-left="910.045" data-right="912" data-top="194.99" data-bottom="230.01"><g data-name="stavePiece" data-left="910.045" data-right="912" data-top="194.99" data-bottom="230.01"><path d="M 0 -0.51 L 1.955 -0.51 L 1.955 0.51 L 0 0.51 L 0 -0.51 M 0 7.99 L 1.955 7.99 L 1.955 9.01 L 0 9.01 L 0 7.99 M 0 16.49 L 1.955 16.49 L 1.955 17.51 L 0 17.51 L 0 16.49 M 0 24.99 L 1.955 24.99 L 1.955 26.01 L 0 26.01 L 0 24.99 M 0 33.49 L 1.955 33.49 L 1.955 34.51 L 0 34.51 L 0 33.49" fill="#343434" fill-rule="evenodd" vector-effect="none" data-left="910.045" data-right="912" data-top="194.99" data-bottom="230.01" transform="translate(88.91, 195.5)"></path></g></g><polyline points="90.865 194.99 88.91 194.99 88.91 230.01 90.865 230.01" fill="#121212" fill-rule="evenodd" vector-effect="none" data-left="910.045" data-right="912" data-top="194.99" data-bottom="230.01"></polyline></g><g data-name="voicesWithStaveLines" data-left="156.91" data-right="910.045" data-top="181.815" data-bottom="268.43"><g data-name="stavesPiece" data-left="156.91" data-right="910.045" data-top="194.99" data-bottom="230.01"><g data-name="stavePiece" ref-ids="stave-lines-4-1,stave-1,stave-4-1,stave-2-2-1,stave-in-all-measures-on-line-2-1,all-staves-in-measure-4" pointer-events="painted" data-left="156.91" data-right="912" data-top="194.99" data-bottom="230.01"><path d="M 0 -0.51 L 753.135 -0.51 L 753.135 0.51 L 0 0.51 L 0 -0.51 M 0 7.99 L 753.135 7.99 L 753.135 9.01 L 0 9.01 L 0 7.99 M 0 16.49 L 753.135 16.49 L 753.135 17.51 L 0 17.51 L 0 16.49 M 0 24.99 L 753.135 24.99 L 753.135 26.01 L 0 26.01 L 0 24.99 M 0 33.49 L 753.135 33.49 L 753.135 34.51 L 0 34.51 L 0 33.49" fill="#343434" fill-rule="evenodd" vector-effect="none" data-left="156.91" data-right="910.045" data-top="194.99" data-bottom="230.01" transform="translate(88.91, 195.5)"></path></g></g><g data-name="voices" data-left="156.91" data-right="910.045" data-top="181.815" data-bottom="268.43"><g data-name="voicesBody" data-left="156.91" data-right="910.045" data-top="181.815" data-bottom="268.43" transform="translate(21.25, 0)"><g data-name="crossStaveUnit" data-left="190.91" data-right="203.32" data-top="186.065" data-bottom="268.43"><g data-name="crossVoiceUnitOnOneStave" data-left="190.91" data-right="203.32" data-top="186.065" data-bottom="268.43"><g data-name="singleUnit" ref-ids="all-units,all-units-on-line-2,unit-4-1-1-1,voice-1,voice-1-1,voice-4-1-1,voice-2-2-1-1,voice-in-measure-on-all-staves-2-2-1,voice-in-all-measures-and-on-all-staves-on-line-2-1" pointer-events="painted" data-left="190.91" data-right="203.32" data-top="186.065" data-bottom="221.255"><g data-name="singleUnitBodyParts" ref-ids="unit-4-1-1-1" pointer-events="painted" data-left="190.91" data-right="203.32" data-top="211.99" data-bottom="221.255"><g data-name="singleUnitBody" data-left="190.91" data-right="203.32" data-top="211.99" data-bottom="221.255"><g data-name="noteBody" ref-ids="note-4-1-1-1-1,note-with-index-4-1-1-1-1" pointer-events="painted" data-left="190.91" data-right="203.32" data-top="211.99" data-bottom="221.255"><path d="M 4.08 13.94 C 11.05 13.94 12.41 9.01 12.41 7.735 C 12.41 5.865 10.71 4.675 8.245 4.675 C 1.955 4.675 0 8.925 0 10.88 C 0 12.835 1.785 13.94 4.08 13.94 Z M 1.19 10.965 C 1.19 9.01 7.395 6.205 9.35 6.205 C 10.115 6.205 11.135 6.715 11.135 7.65 C 11.135 8.415 10.2 9.35 7.31 11.05 C 5.355 12.155 4.08 12.58 3.145 12.58 C 2.295 12.58 1.785 12.155 1.53 11.73 C 1.36 11.475 1.19 11.22 1.19 10.965 Z" fill="#121212" fill-rule="evenodd" vector-effect="none" data-left="190.91" data-right="203.32" data-top="211.99" data-bottom="221.255" transform="translate(101.66, 207.315)"></path></g></g></g><line data-name="stem" x1="113.475" y1="186.065" x2="113.475" y2="214.88" stroke="#121212" stroke-width="1.19" stroke-linejoin="round" stroke-linecap="round" stroke-dasharray="" vector-effect="none" ref-ids="stem-4-1-1-1" pointer-events="painted" data-left="202.725" data-right="202.725" data-top="186.065" data-bottom="214.88"></line></g><g data-name="singleUnit" ref-ids="all-units,all-units-on-line-2,unit-4-1-2-1,voice-2,voice-1-2,voice-4-1-2,voice-2-2-1-2,voice-in-measure-on-all-staves-2-2-2,voice-in-all-measures-and-on-all-staves-on-line-2-2" pointer-events="painted" data-left="190.91" data-right="203.32" data-top="233.24" data-bottom="268.43"><g data-name="singleUnitBodyParts" ref-ids="unit-4-1-2-1" pointer-events="painted" data-left="190.91" data-right="203.32" data-top="233.24" data-bottom="242.505"><g data-name="singleUnitBody" data-left="190.91" data-right="203.32" data-top="233.24" data-bottom="242.505"><g data-name="noteBody" ref-ids="note-4-1-2-1-1,note-with-index-4-1-2-1-1" pointer-events="painted" data-left="190.91" data-right="203.32" data-top="233.24" data-bottom="242.505"><path d="M 4.08 13.94 C 11.05 13.94 12.41 9.01 12.41 7.735 C 12.41 5.865 10.71 4.675 8.245 4.675 C 1.955 4.675 0 8.925 0 10.88 C 0 12.835 1.785 13.94 4.08 13.94 Z M 1.19 10.965 C 1.19 9.01 7.395 6.205 9.35 6.205 C 10.115 6.205 11.135 6.715 11.135 7.65 C 11.135 8.415 10.2 9.35 7.31 11.05 C 5.355 12.155 4.08 12.58 3.145 12.58 C 2.295 12.58 1.785 12.155 1.53 11.73 C 1.36 11.475 1.19 11.22 1.19 10.965 Z" fill="#121212" fill-rule="evenodd" vector-effect="none" data-left="190.91" data-right="203.32" data-top="233.24" data-bottom="242.505" transform="translate(101.66, 228.565)"></path></g></g></g><line data-name="stem" x1="102.255" y1="239.615" x2="102.255" y2="268.43" stroke="#121212" stroke-width="1.19" stroke-linejoin="round" stroke-linecap="round" stroke-dasharray="" vector-effect="none" ref-ids="stem-4-1-2-1" pointer-events="painted" data-left="191.505" data-right="191.505" data-top="239.615" data-bottom="268.43"></line></g></g></g><g data-name="crossStaveUnit" data-left="217.09" data-right="229.5" data-top="181.815" data-bottom="264.18"><g data-name="crossVoiceUnitOnOneStave" data-left="217.09" data-right="229.5" data-top="181.815" data-bottom="264.18"><g data-name="singleUnit" ref-ids="all-units,all-units-on-line-2,unit-4-1-1-2,voice-1,voice-1-1,voice-4-1-1,voice-2-2-1-1,voice-in-measure-on-all-staves-2-2-1,voice-in-all-measures-and-on-all-staves-on-line-2-1" pointer-events="painted" data-left="217.09" data-right="229.5" data-top="181.815" data-bottom="217.005"><g data-name="singleUnitBodyParts" ref-ids="unit-4-1-1-2" pointer-events="painted" data-left="217.09" data-right="229.5" data-top="207.74" data-bottom="217.005"><g data-name="singleUnitBody" data-left="217.09" data-right="229.5" data-top="207.74" data-bottom="217.005"><g data-name="noteBody" ref-ids="note-4-1-1-2-1,note-with-index-4-1-1-2-1" pointer-events="painted" data-left="217.09" data-right="229.5" data-top="207.74" data-bottom="217.005"><path d="M 4.08 13.94 C 11.05 13.94 12.41 9.01 12.41 7.735 C 12.41 5.865 10.71 4.675 8.245 4.675 C 1.955 4.675 0 8.925 0 10.88 C 0 12.835 1.785 13.94 4.08 13.94 Z M 1.19 10.965 C 1.19 9.01 7.395 6.205 9.35 6.205 C 10.115 6.205 11.135 6.715 11.135 7.65 C 11.135 8.415 10.2 9.35 7.31 11.05 C 5.355 12.155 4.08 12.58 3.145 12.58 C 2.295 12.58 1.785 12.155 1.53 11.73 C 1.36 11.475 1.19 11.22 1.19 10.965 Z" fill="#121212" fill-rule="evenodd" vector-effect="none" data-left="217.09" data-right="229.5" data-top="207.74" data-bottom="217.005" transform="translate(127.84, 203.065)"></path></g></g></g><line data-name="stem" x1="139.655" y1="181.815" x2="139.655" y2="210.63" stroke="#121212" stroke-width="1.19" stroke-linejoin="round" stroke-linecap="round" stroke-dasharray="" vector-effect="none" ref-ids="stem-4-1-1-2" pointer-events="painted" data-left="228.905" data-right="228.905" data-top="181.815" data-bottom="210.63"></line></g><g data-name="singleUnit" ref-ids="all-units,all-units-on-line-2,unit-4-1-2-2,voice-2,voice-1-2,voice-4-1-2,voice-2-2-1-2,voice-in-measure-on-all-staves-2-2-2,voice-in-all-measures-and-on-all-staves-on-line-2-2" pointer-events="painted" data-left="217.09" data-right="229.5" data-top="228.99" data-bottom="264.18"><g data-name="singleUnitBodyParts" ref-ids="unit-4-1-2-2" pointer-events="painted" data-left="217.09" data-right="229.5" data-top="228.99" data-bottom="238.255"><g data-name="singleUnitBody" data-left="217.09" data-right="229.5" data-top="228.99" data-bottom="238.255"><g data-name="noteBody" ref-ids="note-4-1-2-2-1,note-with-index-4-1-2-2-1" pointer-events="painted" data-left="217.09" data-right="229.5" data-top="228.99" data-bottom="238.255"><path d="M 4.08 13.94 C 11.05 13.94 12.41 9.01 12.41 7.735 C 12.41 5.865 10.71 4.675 8.245 4.675 C 1.955 4.675 0 8.925 0 10.88 C 0 12.835 1.785 13.94 4.08 13.94 Z M 1.19 10.965 C 1.19 9.01 7.395 6.205 9.35 6.205 C 10.115 6.205 11.135 6.715 11.135 7.65 C 11.135 8.415 10.2 9.35 7.31 11.05 C 5.355 12.155 4.08 12.58 3.145 12.58 C 2.295 12.58 1.785 12.155 1.53 11.73 C 1.36 11.475 1.19 11.22 1.19 10.965 Z" fill="#121212" fill-rule="evenodd" vector-effect="none" data-left="217.09" data-right="229.5" data-top="228.99" data-bottom="238.255" transform="translate(127.84, 224.315)"></path></g></g></g><line data-name="stem" x1="128.435" y1="235.365" x2="128.435" y2="264.18" stroke="#121212" stroke-width="1.19" stroke-linejoin="round" stroke-linecap="round" stroke-dasharray="" vector-effect="none" ref-ids="stem-4-1-2-2" pointer-events="painted" data-left="217.685" data-right="217.685" data-top="235.365" data-bottom="264.18"></line></g></g></g></g></g></g></g><g data-name="additionalMeasureElementsOnPageLine" data-left="88.91" data-right="910.045" data-top="179.2840770783" data-bottom="209.865"><path d="M 20.91 209.865 C 20.9100132753 209.8649867247 20.9100666665 209.8649333333 20.9101 209.8649 C 61.6847543107 169.0904694361 801.2702457563 169.0904694377 842.0449 209.8649 C 842.0449333335 209.8649333333 842.0449999987 209.8649999987 842.045 209.865 C 801.2702457563 170.7904694377 61.6847543107 170.7904694361 20.91 209.865" fill="#121212" fill-rule="evenodd" vector-effect="none" stroke="#121212" stroke-width="1.1475" stroke-linejoin="round" stroke-linecap="round" ref-ids="tie-after-3-1-1-1" pointer-events="painted" data-left="88.91" data-right="910.045" data-top="179.2840770783" data-bottom="209.865"></path><path d="M 94.435 209.865 C 94.4350318332 209.8649681667 94.4350666666 209.8649333332 94.4351 209.8649 C 102.1174353179 202.1826148419 121.4325646827 202.1826148419 129.1149 209.8649 C 129.1149333334 209.8649333332 129.1149999984 209.8649999984 129.115 209.865 C 121.4325646827 203.8826148419 102.1174353179 203.8826148419 94.435 209.865" fill="#121212" fill-rule="evenodd" vector-effect="none" stroke="#121212" stroke-width="1.1475" stroke-linejoin="round" stroke-linecap="round" ref-ids="tie-before-4-1-1-1" pointer-events="painted" data-left="162.435" data-right="197.115" data-top="204.1031861314" data-bottom="209.865"></path></g></g><rect width="68" height="153" stroke="#FDF5E6" stroke-width="0.0085" stroke-linejoin="bevel" stroke-linecap="butt" fill="none" vector-effect="none" data-left="0" data-right="68" data-top="76.5" data-bottom="229.5" transform="translate(0, 76.5)"></rect><rect width="68" height="153" stroke="#FDF5E6" stroke-width="0.0085" stroke-linejoin="bevel" stroke-linecap="butt" fill="none" vector-effect="none" data-left="912" data-right="980" data-top="76.5" data-bottom="229.5" transform="translate(912, 76.5)"></rect></g></g></svg>