<svg xmlns="http://www.w3.org/2000/svg" version="1.1" xmlns:xlink="http://www.w3.org/1999/xlink" width="980" height="331.5" viewBox="0 0 980 331.5" shape-rendering="geometricPrecision" data-left="0" data-right="980" data-top="0" data-bottom="331.5"><g data-name="page" data-interval-between-stave-lines="8.5" data-font-color="#121212" data-left="0" data-right="980" data-top="0" data-bottom="331.5"><rect width="980" height="331.5" stroke="transparent" stroke-width="0.425" stroke-linejoin="" stroke-linecap="" fill="#FDF5E6" vector-effect="none" data-name="page-background" data-left="0" data-right="980" data-top="0" data-bottom="331.5"></rect><g data-name="pageWithoutBorder" data-left="0" data-right="980" data-top="62.815" data-bottom="255.51"><g data-name="measures" data-left="68" data-right="912" data-top="62.815" data-bottom="255.51" transform="translate(68, 0)"><g data-name="additionalStaveLinesOnPageLine" data-left="212.33" data-right="320.62" data-top="119" data-bottom="119"><line data-name="additionalStaveLine" x1="144.33" y1="119" x2="165.58" y2="119" stroke="#121212" stroke-width="1.445" stroke-linejoin="round" stroke-linecap="round" stroke-dasharray="" vector-effect="none" data-left="212.33" data-right="233.58" data-top="119" data-bottom="119"></line><line data-name="additionalStaveLine" x1="187.85" y1="119" x2="209.1" y2="119" stroke="#121212" stroke-width="1.445" stroke-linejoin="round" stroke-linecap="round" stroke-dasharray="" vector-effect="none" data-left="255.85" data-right="277.1" data-top="119" data-bottom="119"></line><line data-name="additionalStaveLine" x1="231.37" y1="119" x2="252.62" y2="119" stroke="#121212" stroke-width="1.445" stroke-linejoin="round" stroke-linecap="round" stroke-dasharray="" vector-effect="none" data-left="299.37" data-right="320.62" data-top="119" data-bottom="119"></line></g><g data-name="measure" ref-ids="measure-1,measure-1-1,line-1,every-measure-including-index-0,first-measure-including-index-0" pointer-events="painted" data-left="68" data-right="192.61" data-top="62.815" data-bottom="255.51"><g data-name="startBarLine" ref-ids="opening-barline-1" pointer-events="painted" data-left="68" data-right="69.955" data-top="75.99" data-bottom="255.51"><g data-name="stavesPiece" data-left="68" data-right="69.955" data-top="75.99" data-bottom="255.51"><g data-name="stavePiece" data-left="68" data-right="69.955" data-top="75.99" data-bottom="111.01"><path d="M 0 -0.51 L 1.955 -0.51 L 1.955 0.51 L 0 0.51 L 0 -0.51 M 0 7.99 L 1.955 7.99 L 1.955 9.01 L 0 9.01 L 0 7.99 M 0 16.49 L 1.955 16.49 L 1.955 17.51 L 0 17.51 L 0 16.49 M 0 24.99 L 1.955 24.99 L 1.955 26.01 L 0 26.01 L 0 24.99 M 0 33.49 L 1.955 33.49 L 1.955 34.51 L 0 34.51 L 0 33.49" fill="#343434" fill-rule="evenodd" vector-effect="none" data-left="68" data-right="69.955" data-top="75.99" data-bottom="111.01" transform="translate(0, 76.5)"></path></g><g data-name="stavePiece" data-left="68" data-right="69.955" data-top="220.49" data-bottom="255.51"><path d="M 0 -0.51 L 1.955 -0.51 L 1.955 0.51 L 0 0.51 L 0 -0.51 M 0 7.99 L 1.955 7.99 L 1.955 9.01 L 0 9.01 L 0 7.99 M 0 16.49 L 1.955 16.49 L 1.955 17.51 L 0 17.51 L 0 16.49 M 0 24.99 L 1.955 24.99 L 1.955 26.01 L 0 26.01 L 0 24.99 M 0 33.49 L 1.955 33.49 L 1.955 34.51 L 0 34.51 L 0 33.49" fill="#343434" fill-rule="evenodd" vector-effect="none" data-left="68" data-right="69.955" data-top="220.49" data-bottom="255.51" transform="translate(0, 221)"></path></g></g><polyline points="0 75.99 1.955 75.99 1.955 255.51 0 255.51" fill="#121212" fill-rule="evenodd" vector-effect="none" data-left="68" data-right="69.955" data-top="75.99" data-bottom="255.51"></polyline></g><g data-name="clefsOnStaves" data-left="69.955" data-right="105.655" data-top="64.855" data-bottom="255.51"><g data-name="trebleClef" ref-ids="clef-1-1" pointer-events="painted" data-left="69.955" data-right="105.655" data-top="64.855" data-bottom="124.61"><g data-name="stavePiece" data-left="69.955" data-right="105.655" data-top="75.99" data-bottom="111.01"><path d="M 0 -0.51 L 35.7 -0.51 L 35.7 0.51 L 0 0.51 L 0 -0.51 M 0 7.99 L 35.7 7.99 L 35.7 9.01 L 0 9.01 L 0 7.99 M 0 16.49 L 35.7 16.49 L 35.7 17.51 L 0 17.51 L 0 16.49 M 0 24.99 L 35.7 24.99 L 35.7 26.01 L 0 26.01 L 0 24.99 M 0 33.49 L 35.7 33.49 L 35.7 34.51 L 0 34.51 L 0 33.49" fill="#343434" fill-rule="evenodd" vector-effect="none" data-left="69.955" data-right="105.655" data-top="75.99" data-bottom="111.01" transform="translate(1.955, 76.5)"></path></g><g data-name="clefShape" data-left="76.415" data-right="99.195" data-top="64.855" data-bottom="124.61" transform="translate(8.415, 0)"><path d="M 12.41 68.255 C 13.175 68.255 14.025 68.17 14.705 68.085 C 15.13 68 15.13 68 15.215 68.34 C 15.64 70.635 16.15 73.61 16.15 75.225 C 16.15 80.24 12.75 80.835 10.71 80.835 C 8.925 80.835 7.99 80.325 7.99 79.9 C 7.99 79.645 8.33 79.56 9.095 79.305 C 10.2 78.965 11.39 78.03 11.39 76.075 C 11.39 74.205 10.2 72.59 8.16 72.59 C 5.865 72.59 4.505 74.46 4.505 76.5 C 4.505 78.71 5.78 82.11 10.965 82.11 C 13.26 82.11 17.68 81.09 17.68 75.31 C 17.68 73.355 17 70.125 16.66 68 C 16.575 67.575 16.66 67.66 17.085 67.405 C 20.57 66.045 22.78 63.155 22.78 59.33 C 22.78 54.995 19.635 51.17 14.62 51.17 C 13.77 51.17 13.77 51.17 13.6 50.49 L 12.75 45.56 C 12.75 45.22 12.75 45.135 13.005 44.965 C 16.66 41.48 19.465 37.23 19.465 31.96 C 19.465 29.07 18.615 26.095 17.255 24.055 C 16.745 23.29 15.81 22.355 15.47 22.355 C 14.96 22.355 13.94 23.29 13.26 23.97 C 10.71 26.775 9.945 31.025 9.945 34.595 C 9.945 36.55 10.2 38.76 10.37 40.12 C 10.455 40.545 10.54 40.63 10.115 40.97 C 5.185 45.05 0 49.895 0 56.78 C 0 62.645 4.08 68.255 12.41 68.255 Z M 2.72 58.99 C 2.72 57.035 3.06 54.315 5.865 51.17 C 7.905 48.875 9.52 47.6 11.05 46.325 C 11.39 46.07 11.475 46.07 11.56 46.41 L 12.24 50.83 C 12.41 51.425 12.41 51.425 11.73 51.595 C 8.755 52.615 6.8 55.335 6.8 58.225 C 6.8 61.285 8.415 63.41 10.71 64.26 C 11.05 64.345 11.39 64.43 11.645 64.43 C 11.9 64.43 12.07 64.26 12.07 64.09 C 12.07 63.835 11.815 63.75 11.56 63.58 C 10.115 62.985 9.095 61.54 9.095 60.01 C 9.095 58.055 10.455 56.61 12.495 56.015 C 13.09 55.845 13.09 55.93 13.175 56.27 L 14.875 66.385 C 14.96 66.81 14.96 66.81 14.45 66.895 C 13.855 66.98 13.175 67.065 12.495 67.065 C 6.545 67.065 2.72 63.75 2.72 58.99 Z M 15.98 27.625 C 17.085 27.625 18.02 28.56 18.02 30.43 C 18.02 34.17 14.79 37.23 12.07 39.61 C 11.9 39.78 11.73 39.78 11.645 39.355 C 11.56 38.42 11.475 37.315 11.475 36.21 C 11.475 30.94 13.94 27.625 15.98 27.625 Z M 14.96 55.76 C 17.765 55.93 20.06 58.31 20.06 61.285 C 20.06 63.41 18.7 65.11 16.83 66.13 C 16.405 66.3 16.32 66.3 16.32 65.875 L 14.62 56.185 C 14.535 55.76 14.62 55.675 14.96 55.76 Z" fill="#121212" fill-rule="evenodd" vector-effect="none" data-left="76.415" data-right="99.195" data-top="64.855" data-bottom="124.61" transform="translate(0, 42.5)"></path></g></g><g data-name="bassCleff" ref-ids="clef-1-2" pointer-events="painted" data-left="69.955" data-right="105.655" data-top="220.49" data-bottom="255.51"><g data-name="stavePiece" data-left="69.955" data-right="105.655" data-top="220.49" data-bottom="255.51"><path d="M 0 -0.51 L 35.7 -0.51 L 35.7 0.51 L 0 0.51 L 0 -0.51 M 0 7.99 L 35.7 7.99 L 35.7 9.01 L 0 9.01 L 0 7.99 M 0 16.49 L 35.7 16.49 L 35.7 17.51 L 0 17.51 L 0 16.49 M 0 24.99 L 35.7 24.99 L 35.7 26.01 L 0 26.01 L 0 24.99 M 0 33.49 L 35.7 33.49 L 35.7 34.51 L 0 34.51 L 0 33.49" fill="#343434" fill-rule="evenodd" vector-effect="none" data-left="69.955" data-right="105.655" data-top="220.49" data-bottom="255.51" transform="translate(1.955, 221)"></path></g><g data-name="clefShape" data-left="76.075" data-right="99.535" data-top="220.745" data-bottom="251.26" transform="translate(8.075, 0)"><path d="M 0.425 52.105 C 0.595 52.105 0.85 52.02 1.02 51.935 C 9.35 47.855 18.19 41.82 18.19 31.45 C 18.19 25.5 14.62 21.59 8.755 21.59 C 2.805 21.59 0.17 25.925 0.17 29.155 C 0.17 31.875 1.615 34.255 4.335 34.255 C 6.46 34.255 7.99 32.725 7.99 30.6 C 7.99 28.475 6.375 27.115 4.675 27.115 C 3.74 27.115 3.4 27.37 2.975 27.37 C 2.55 27.37 2.465 27.03 2.465 26.69 C 2.465 25.33 4.505 22.865 7.99 22.865 C 11.56 22.865 13.09 26.435 13.09 31.79 C 13.09 41.225 8.415 46.58 0.51 51.085 C 0.17 51.255 0 51.425 0 51.68 C 0 51.85 0.17 52.105 0.425 52.105 Z M 21.59 28.135 C 22.61 28.135 23.46 27.285 23.46 26.265 C 23.46 25.16 22.61 24.395 21.59 24.395 C 20.485 24.395 19.72 25.16 19.72 26.265 C 19.72 27.285 20.485 28.135 21.59 28.135 Z M 21.59 36.55 C 22.61 36.55 23.46 35.785 23.46 34.765 C 23.46 33.66 22.61 32.895 21.59 32.895 C 20.57 32.895 19.72 33.66 19.72 34.765 C 19.72 35.785 20.57 36.55 21.59 36.55 Z" fill="#121212" fill-rule="evenodd" vector-effect="none" data-left="76.075" data-right="99.535" data-top="220.745" data-bottom="251.26" transform="translate(0, 199.155)"></path></g></g></g><g data-name="keySignaturesOnStaves" data-left="105.655" data-right="105.655" data-top="75.99" data-bottom="255.51"><g data-name="keySignature" ref-ids="key-signature-1" pointer-events="painted" data-left="105.655" data-right="105.655" data-top="75.99" data-bottom="111.01"><g data-name="stavePiece" data-left="105.655" data-right="105.655" data-top="75.99" data-bottom="111.01"><path d="M 0 -0.51 L 0 -0.51 L 0 0.51 L 0 0.51 L 0 -0.51 M 0 7.99 L 0 7.99 L 0 9.01 L 0 9.01 L 0 7.99 M 0 16.49 L 0 16.49 L 0 17.51 L 0 17.51 L 0 16.49 M 0 24.99 L 0 24.99 L 0 26.01 L 0 26.01 L 0 24.99 M 0 33.49 L 0 33.49 L 0 34.51 L 0 34.51 L 0 33.49" fill="#343434" fill-rule="evenodd" vector-effect="none" data-left="105.655" data-right="105.655" data-top="75.99" data-bottom="111.01" transform="translate(37.655, 76.5)"></path></g></g><g data-name="keySignature" ref-ids="key-signature-1" pointer-events="painted" data-left="105.655" data-right="105.655" data-top="220.49" data-bottom="255.51"><g data-name="stavePiece" data-left="105.655" data-right="105.655" data-top="220.49" data-bottom="255.51"><path d="M 0 -0.51 L 0 -0.51 L 0 0.51 L 0 0.51 L 0 -0.51 M 0 7.99 L 0 7.99 L 0 9.01 L 0 9.01 L 0 7.99 M 0 16.49 L 0 16.49 L 0 17.51 L 0 17.51 L 0 16.49 M 0 24.99 L 0 24.99 L 0 26.01 L 0 26.01 L 0 24.99 M 0 33.49 L 0 33.49 L 0 34.51 L 0 34.51 L 0 33.49" fill="#343434" fill-rule="evenodd" vector-effect="none" data-left="105.655" data-right="105.655" data-top="220.49" data-bottom="255.51" transform="translate(37.655, 221)"></path></g></g></g><g data-name="voicesWithStaveLines" data-left="105.655" data-right="190.655" data-top="75.99" data-bottom="255.51"><g data-name="stavesPiece" data-left="105.655" data-right="190.655" data-top="75.99" data-bottom="255.51"><g data-name="stavePiece" ref-ids="stave-lines-1-1,stave-1,stave-1-1,stave-1-1-1,stave-in-all-measures-on-line-1-1,all-staves-in-measure-1" pointer-events="painted" data-left="68" data-right="192.61" data-top="75.99" data-bottom="111.01"><path d="M 0 -0.51 L 85 -0.51 L 85 0.51 L 0 0.51 L 0 -0.51 M 0 7.99 L 85 7.99 L 85 9.01 L 0 9.01 L 0 7.99 M 0 16.49 L 85 16.49 L 85 17.51 L 0 17.51 L 0 16.49 M 0 24.99 L 85 24.99 L 85 26.01 L 0 26.01 L 0 24.99 M 0 33.49 L 85 33.49 L 85 34.51 L 0 34.51 L 0 33.49" fill="#343434" fill-rule="evenodd" vector-effect="none" data-left="105.655" data-right="190.655" data-top="75.99" data-bottom="111.01" transform="translate(37.655, 76.5)"></path></g><g data-name="stavePiece" ref-ids="stave-lines-1-2,stave-2,stave-1-2,stave-1-1-2,stave-in-all-measures-on-line-1-2,all-staves-in-measure-1" pointer-events="painted" data-left="68" data-right="192.61" data-top="220.49" data-bottom="255.51"><path d="M 0 -0.51 L 85 -0.51 L 85 0.51 L 0 0.51 L 0 -0.51 M 0 7.99 L 85 7.99 L 85 9.01 L 0 9.01 L 0 7.99 M 0 16.49 L 85 16.49 L 85 17.51 L 0 17.51 L 0 16.49 M 0 24.99 L 85 24.99 L 85 26.01 L 0 26.01 L 0 24.99 M 0 33.49 L 85 33.49 L 85 34.51 L 0 34.51 L 0 33.49" fill="#343434" fill-rule="evenodd" vector-effect="none" data-left="105.655" data-right="190.655" data-top="220.49" data-bottom="255.51" transform="translate(37.655, 221)"></path></g></g></g><g data-name="barLine" ref-ids="closing-barline-1" pointer-events="painted" data-left="190.655" data-right="192.61" data-top="75.99" data-bottom="255.51"><g data-name="stavesPiece" data-left="190.655" data-right="192.61" data-top="75.99" data-bottom="255.51"><g data-name="stavePiece" data-left="190.655" data-right="192.61" data-top="75.99" data-bottom="111.01"><path d="M 0 -0.51 L 1.955 -0.51 L 1.955 0.51 L 0 0.51 L 0 -0.51 M 0 7.99 L 1.955 7.99 L 1.955 9.01 L 0 9.01 L 0 7.99 M 0 16.49 L 1.955 16.49 L 1.955 17.51 L 0 17.51 L 0 16.49 M 0 24.99 L 1.955 24.99 L 1.955 26.01 L 0 26.01 L 0 24.99 M 0 33.49 L 1.955 33.49 L 1.955 34.51 L 0 34.51 L 0 33.49" fill="#343434" fill-rule="evenodd" vector-effect="none" data-left="190.655" data-right="192.61" data-top="75.99" data-bottom="111.01" transform="translate(122.655, 76.5)"></path></g><g data-name="stavePiece" data-left="190.655" data-right="192.61" data-top="220.49" data-bottom="255.51"><path d="M 0 -0.51 L 1.955 -0.51 L 1.955 0.51 L 0 0.51 L 0 -0.51 M 0 7.99 L 1.955 7.99 L 1.955 9.01 L 0 9.01 L 0 7.99 M 0 16.49 L 1.955 16.49 L 1.955 17.51 L 0 17.51 L 0 16.49 M 0 24.99 L 1.955 24.99 L 1.955 26.01 L 0 26.01 L 0 24.99 M 0 33.49 L 1.955 33.49 L 1.955 34.51 L 0 34.51 L 0 33.49" fill="#343434" fill-rule="evenodd" vector-effect="none" data-left="190.655" data-right="192.61" data-top="220.49" data-bottom="255.51" transform="translate(122.655, 221)"></path></g></g><polyline points="124.61 75.99 122.655 75.99 122.655 255.51 124.61 255.51" fill="#121212" fill-rule="evenodd" vector-effect="none" data-left="190.655" data-right="192.61" data-top="75.99" data-bottom="255.51"></polyline></g></g><g data-name="measure" ref-ids="measure-2,measure-1-2,line-1,every-measure,every-measure-including-index-0,last-measure,first-or-last-measure,last-measure-on-page" pointer-events="painted" data-left="192.61" data-right="912" data-top="62.815" data-bottom="255.51"><g data-name="barLine" ref-ids="closing-barline-2" pointer-events="painted" data-left="910.045" data-right="912" data-top="75.99" data-bottom="255.51" transform="translate(717.435, 0)"><g data-name="stavesPiece" data-left="910.045" data-right="912" data-top="75.99" data-bottom="255.51"><g data-name="stavePiece" data-left="910.045" data-right="912" data-top="75.99" data-bottom="111.01"><path d="M 0 -0.51 L 1.955 -0.51 L 1.955 0.51 L 0 0.51 L 0 -0.51 M 0 7.99 L 1.955 7.99 L 1.955 9.01 L 0 9.01 L 0 7.99 M 0 16.49 L 1.955 16.49 L 1.955 17.51 L 0 17.51 L 0 16.49 M 0 24.99 L 1.955 24.99 L 1.955 26.01 L 0 26.01 L 0 24.99 M 0 33.49 L 1.955 33.49 L 1.955 34.51 L 0 34.51 L 0 33.49" fill="#343434" fill-rule="evenodd" vector-effect="none" data-left="910.045" data-right="912" data-top="75.99" data-bottom="111.01" transform="translate(124.61, 76.5)"></path></g><g data-name="stavePiece" data-left="910.045" data-right="912" data-top="220.49" data-bottom="255.51"><path d="M 0 -0.51 L 1.955 -0.51 L 1.955 0.51 L 0 0.51 L 0 -0.51 M 0 7.99 L 1.955 7.99 L 1.955 9.01 L 0 9.01 L 0 7.99 M 0 16.49 L 1.955 16.49 L 1.955 17.51 L 0 17.51 L 0 16.49 M 0 24.99 L 1.955 24.99 L 1.955 26.01 L 0 26.01 L 0 24.99 M 0 33.49 L 1.955 33.49 L 1.955 34.51 L 0 34.51 L 0 33.49" fill="#343434" fill-rule="evenodd" vector-effect="none" data-left="910.045" data-right="912" data-top="220.49" data-bottom="255.51" transform="translate(124.61, 221)"></path></g></g><polyline points="126.565 75.99 124.61 75.99 124.61 255.51 126.565 255.51" fill="#121212" fill-rule="evenodd" vector-effect="none" data-left="910.045" data-right="912" data-top="75.99" data-bottom="255.51"></polyline></g><g data-name="voicesWithStaveLines" data-left="192.61" data-right="910.045" data-top="62.815" data-bottom="255.51"><g data-name="stavesPiece" data-left="192.61" data-right="910.045" data-top="75.99" data-bottom="255.51"><g data-name="stavePiece" ref-ids="stave-lines-2-1,stave-1,stave-2-1,stave-1-2-1,stave-in-all-measures-on-line-1-1,all-staves-in-measure-2" pointer-events="painted" data-left="192.61" data-right="912" data-top="75.99" data-bottom="111.01"><path d="M 0 -0.51 L 717.435 -0.51 L 717.435 0.51 L 0 0.51 L 0 -0.51 M 0 7.99 L 717.435 7.99 L 717.435 9.01 L 0 9.01 L 0 7.99 M 0 16.49 L 717.435 16.49 L 717.435 17.51 L 0 17.51 L 0 16.49 M 0 24.99 L 717.435 24.99 L 717.435 26.01 L 0 26.01 L 0 24.99 M 0 33.49 L 717.435 33.49 L 717.435 34.51 L 0 34.51 L 0 33.49" fill="#343434" fill-rule="evenodd" vector-effect="none" data-left="192.61" data-right="910.045" data-top="75.99" data-bottom="111.01" transform="translate(124.61, 76.5)"></path></g><g data-name="stavePiece" ref-ids="stave-lines-2-2,stave-2,stave-2-2,stave-1-2-2,stave-in-all-measures-on-line-1-2,all-staves-in-measure-2" pointer-events="painted" data-left="192.61" data-right="912" data-top="220.49" data-bottom="255.51"><path d="M 0 -0.51 L 717.435 -0.51 L 717.435 0.51 L 0 0.51 L 0 -0.51 M 0 7.99 L 717.435 7.99 L 717.435 9.01 L 0 9.01 L 0 7.99 M 0 16.49 L 717.435 16.49 L 717.435 17.51 L 0 17.51 L 0 16.49 M 0 24.99 L 717.435 24.99 L 717.435 26.01 L 0 26.01 L 0 24.99 M 0 33.49 L 717.435 33.49 L 717.435 34.51 L 0 34.51 L 0 33.49" fill="#343434" fill-rule="evenodd" vector-effect="none" data-left="192.61" data-right="910.045" data-top="220.49" data-bottom="255.51" transform="translate(124.61, 221)"></path></g></g><g data-name="voices" data-left="192.61" data-right="910.045" data-top="62.815" data-bottom="246.925"><g data-name="voicesBody" data-left="192.61" data-right="910.045" data-top="62.815" data-bottom="246.925"><g data-name="apreggiatedWavesForCrossStaveUnit" data-left="203.32" data-right="207.4" data-top="89.25" data-bottom="123.25"><g data-name="wave" ref-ids="arpeggiated-wave-2-1-1-1" pointer-events="painted" data-left="203.32" data-right="207.4" data-top="89.25" data-bottom="123.25" transform="rotate(90, 137.36, 89.25)"><path d="M 0.425 3.06 C 0.595 3.06 0.765 3.06 0.85 2.975 C 1.36 2.72 1.785 2.55 2.465 2.55 C 3.995 2.55 4.335 4.08 6.97 4.08 C 9.69 4.08 10.795 1.615 11.05 1.02 C 11.05 1.02 11.05 0.935 11.05 0.935 C 11.05 0.85 10.965 0.765 10.88 0.765 C 10.625 0.765 10.37 0.85 10.2 1.02 C 9.775 1.275 9.435 1.53 9.01 1.53 C 8.925 1.53 8.755 1.53 8.67 1.53 C 7.99 1.36 7.395 1.02 6.8 0.765 C 6.035 0.425 5.1 0 4.165 0 C 1.53 0 0.765 1.87 0.17 2.465 C 0.085 2.55 0 2.72 0 2.805 C 0 2.975 0.17 3.06 0.425 3.06 Z" fill="#121212" fill-rule="evenodd" vector-effect="none" data-left="205.36" data-right="216.41" data-top="87.125" data-bottom="91.205" transform="translate(137.36, 87.125)"></path><path d="M 0.425 3.06 C 0.595 3.06 0.765 3.06 0.85 2.975 C 1.36 2.72 1.785 2.55 2.465 2.55 C 3.995 2.55 4.335 4.08 6.97 4.08 C 9.69 4.08 10.795 1.615 11.05 1.02 C 11.05 1.02 11.05 0.935 11.05 0.935 C 11.05 0.85 10.965 0.765 10.88 0.765 C 10.625 0.765 10.37 0.85 10.2 1.02 C 9.775 1.275 9.435 1.53 9.01 1.53 C 8.925 1.53 8.755 1.53 8.67 1.53 C 7.99 1.36 7.395 1.02 6.8 0.765 C 6.035 0.425 5.1 0 4.165 0 C 1.53 0 0.765 1.87 0.17 2.465 C 0.085 2.55 0 2.72 0 2.805 C 0 2.975 0.17 3.06 0.425 3.06 Z" fill="#121212" fill-rule="evenodd" vector-effect="none" data-left="214.285" data-right="225.335" data-top="87.125" data-bottom="91.205" transform="translate(146.285, 87.125)"></path><path d="M 0.425 3.06 C 0.595 3.06 0.765 3.06 0.85 2.975 C 1.36 2.72 1.785 2.55 2.465 2.55 C 3.995 2.55 4.335 4.08 6.97 4.08 C 9.69 4.08 10.795 1.615 11.05 1.02 C 11.05 1.02 11.05 0.935 11.05 0.935 C 11.05 0.85 10.965 0.765 10.88 0.765 C 10.625 0.765 10.37 0.85 10.2 1.02 C 9.775 1.275 9.435 1.53 9.01 1.53 C 8.925 1.53 8.755 1.53 8.67 1.53 C 7.99 1.36 7.395 1.02 6.8 0.765 C 6.035 0.425 5.1 0 4.165 0 C 1.53 0 0.765 1.87 0.17 2.465 C 0.085 2.55 0 2.72 0 2.805 C 0 2.975 0.17 3.06 0.425 3.06 Z" fill="#121212" fill-rule="evenodd" vector-effect="none" data-left="223.21" data-right="234.26" data-top="87.125" data-bottom="91.205" transform="translate(155.21, 87.125)"></path><path d="M 0.425 3.06 C 0.595 3.06 0.765 3.06 0.85 2.975 C 1.36 2.72 1.785 2.55 2.465 2.55 C 3.995 2.55 4.335 4.08 6.97 4.08 C 9.69 4.08 10.795 1.615 11.05 1.02 C 11.05 1.02 11.05 0.935 11.05 0.935 C 11.05 0.85 10.965 0.765 10.88 0.765 C 10.625 0.765 10.37 0.85 10.2 1.02 C 9.775 1.275 9.435 1.53 9.01 1.53 C 8.925 1.53 8.755 1.53 8.67 1.53 C 7.99 1.36 7.395 1.02 6.8 0.765 C 6.035 0.425 5.1 0 4.165 0 C 1.53 0 0.765 1.87 0.17 2.465 C 0.085 2.55 0 2.72 0 2.805 C 0 2.975 0.17 3.06 0.425 3.06 Z" fill="#121212" fill-rule="evenodd" vector-effect="none" data-left="232.135" data-right="243.185" data-top="87.125" data-bottom="91.205" transform="translate(164.135, 87.125)"></path></g></g><g data-name="apreggiatedWavesForCrossStaveUnit" data-left="242.93" data-right="250.92" data-top="89.25" data-bottom="123.25" transform="translate(3.995, 0)"><g data-name="wave" ref-ids="arpeggiated-wave-2-1-1-2" pointer-events="painted" data-left="242.93" data-right="250.92" data-top="89.25" data-bottom="123.25" transform="rotate(-90, 174.93, 123.25)"><path d="M 0.425 3.06 C 0.595 3.06 0.765 3.06 0.85 2.975 C 1.36 2.72 1.785 2.55 2.465 2.55 C 3.995 2.55 4.335 4.08 6.97 4.08 C 9.69 4.08 10.795 1.615 11.05 1.02 C 11.05 1.02 11.05 0.935 11.05 0.935 C 11.05 0.85 10.965 0.765 10.88 0.765 C 10.625 0.765 10.37 0.85 10.2 1.02 C 9.775 1.275 9.435 1.53 9.01 1.53 C 8.925 1.53 8.755 1.53 8.67 1.53 C 7.99 1.36 7.395 1.02 6.8 0.765 C 6.035 0.425 5.1 0 4.165 0 C 1.53 0 0.765 1.87 0.17 2.465 C 0.085 2.55 0 2.72 0 2.805 C 0 2.975 0.17 3.06 0.425 3.06 Z" fill="#121212" fill-rule="evenodd" vector-effect="none" data-left="246.925" data-right="257.975" data-top="121.125" data-bottom="125.205" transform="translate(174.93, 121.125)"></path><path d="M 0.425 3.06 C 0.595 3.06 0.765 3.06 0.85 2.975 C 1.36 2.72 1.785 2.55 2.465 2.55 C 3.995 2.55 4.335 4.08 6.97 4.08 C 9.69 4.08 10.795 1.615 11.05 1.02 C 11.05 1.02 11.05 0.935 11.05 0.935 C 11.05 0.85 10.965 0.765 10.88 0.765 C 10.625 0.765 10.37 0.85 10.2 1.02 C 9.775 1.275 9.435 1.53 9.01 1.53 C 8.925 1.53 8.755 1.53 8.67 1.53 C 7.99 1.36 7.395 1.02 6.8 0.765 C 6.035 0.425 5.1 0 4.165 0 C 1.53 0 0.765 1.87 0.17 2.465 C 0.085 2.55 0 2.72 0 2.805 C 0 2.975 0.17 3.06 0.425 3.06 Z" fill="#121212" fill-rule="evenodd" vector-effect="none" data-left="255.85" data-right="266.9" data-top="121.125" data-bottom="125.205" transform="translate(183.855, 121.125)"></path><path d="M 0.17 7.905 C 0.425 7.905 0.68 7.82 0.85 7.65 C 1.19 7.395 1.87 6.97 2.55 6.97 C 2.72 6.97 2.72 6.97 2.89 6.97 C 4.505 7.225 5.78 7.99 7.82 7.99 C 8.925 7.99 9.945 7.905 11.05 7.65 C 10.88 8.84 10.54 9.945 9.775 10.71 L 19.125 6.545 L 9.775 2.72 C 10.37 3.315 10.88 4.76 11.05 6.46 L 10.37 6.46 C 8.84 6.46 6.715 4.93 4.08 4.93 C 1.445 4.93 0.255 7.055 0 7.65 C 0 7.65 0 7.735 0 7.735 C 0 7.82 0.085 7.905 0.17 7.905 Z" fill="#121212" fill-rule="evenodd" vector-effect="none" data-left="264.775" data-right="283.9" data-top="118.745" data-bottom="126.735" transform="translate(192.78, 116.025)"></path></g></g><g data-name="apreggiatedWavesForCrossStaveUnit" data-left="286.45" data-right="294.44" data-top="89.25" data-bottom="123.25" transform="translate(3.995, 0)"><g data-name="wave" ref-ids="arpeggiated-wave-2-1-1-3" pointer-events="painted" data-left="286.45" data-right="294.44" data-top="89.25" data-bottom="123.25" transform="rotate(90, 218.45, 89.25)"><path d="M 0.425 3.06 C 0.595 3.06 0.765 3.06 0.85 2.975 C 1.36 2.72 1.785 2.55 2.465 2.55 C 3.995 2.55 4.335 4.08 6.97 4.08 C 9.69 4.08 10.795 1.615 11.05 1.02 C 11.05 1.02 11.05 0.935 11.05 0.935 C 11.05 0.85 10.965 0.765 10.88 0.765 C 10.625 0.765 10.37 0.85 10.2 1.02 C 9.775 1.275 9.435 1.53 9.01 1.53 C 8.925 1.53 8.755 1.53 8.67 1.53 C 7.99 1.36 7.395 1.02 6.8 0.765 C 6.035 0.425 5.1 0 4.165 0 C 1.53 0 0.765 1.87 0.17 2.465 C 0.085 2.55 0 2.72 0 2.805 C 0 2.975 0.17 3.06 0.425 3.06 Z" fill="#121212" fill-rule="evenodd" vector-effect="none" data-left="290.445" data-right="301.495" data-top="87.125" data-bottom="91.205" transform="translate(218.45, 87.125)"></path><path d="M 0.425 3.06 C 0.595 3.06 0.765 3.06 0.85 2.975 C 1.36 2.72 1.785 2.55 2.465 2.55 C 3.995 2.55 4.335 4.08 6.97 4.08 C 9.69 4.08 10.795 1.615 11.05 1.02 C 11.05 1.02 11.05 0.935 11.05 0.935 C 11.05 0.85 10.965 0.765 10.88 0.765 C 10.625 0.765 10.37 0.85 10.2 1.02 C 9.775 1.275 9.435 1.53 9.01 1.53 C 8.925 1.53 8.755 1.53 8.67 1.53 C 7.99 1.36 7.395 1.02 6.8 0.765 C 6.035 0.425 5.1 0 4.165 0 C 1.53 0 0.765 1.87 0.17 2.465 C 0.085 2.55 0 2.72 0 2.805 C 0 2.975 0.17 3.06 0.425 3.06 Z" fill="#121212" fill-rule="evenodd" vector-effect="none" data-left="299.37" data-right="310.42" data-top="87.125" data-bottom="91.205" transform="translate(227.375, 87.125)"></path><path d="M 0.17 7.905 C 0.425 7.905 0.68 7.82 0.85 7.65 C 1.19 7.395 1.87 6.97 2.55 6.97 C 2.72 6.97 2.72 6.97 2.89 6.97 C 4.505 7.225 5.78 7.99 7.82 7.99 C 8.925 7.99 9.945 7.905 11.05 7.65 C 10.88 8.84 10.54 9.945 9.775 10.71 L 19.125 6.545 L 9.775 2.72 C 10.37 3.315 10.88 4.76 11.05 6.46 L 10.37 6.46 C 8.84 6.46 6.715 4.93 4.08 4.93 C 1.445 4.93 0.255 7.055 0 7.65 C 0 7.65 0 7.735 0 7.735 C 0 7.82 0.085 7.905 0.17 7.905 Z" fill="#121212" fill-rule="evenodd" vector-effect="none" data-left="308.295" data-right="327.42" data-top="84.745" data-bottom="92.735" transform="translate(236.3, 82.025)"></path></g></g><g data-name="crossStaveUnit" data-left="216.75" data-right="229.16" data-top="62.815" data-bottom="246.925"><g data-name="crossVoiceUnitOnOneStave" data-left="216.75" data-right="229.16" data-top="62.815" data-bottom="123.675"><g data-name="singleUnit" ref-ids="all-units,all-units-on-line-1,unit-2-1-1-1,voice-1,voice-1-1,voice-2-1-1,voice-1-2-1-1,voice-in-measure-on-all-staves-1-2-1,voice-in-all-measures-and-on-all-staves-on-line-1-1" pointer-events="painted" data-left="216.75" data-right="229.16" data-top="62.815" data-bottom="123.675" transform="translate(9.35, 0)"><g data-name="singleUnitBodyParts" ref-ids="unit-2-1-1-1" pointer-events="painted" data-left="216.75" data-right="229.16" data-top="88.74" data-bottom="123.675"><g data-name="singleUnitBody" data-left="216.75" data-right="229.16" data-top="88.74" data-bottom="123.675"><g data-name="noteBody" ref-ids="note-2-1-1-1-4,note-with-index-2-1-1-1-1" pointer-events="painted" data-left="216.75" data-right="229.16" data-top="88.74" data-bottom="98.175"><path d="M 0 10.965 C 0 12.92 1.785 14.11 4.08 14.11 C 7.82 14.11 12.41 11.05 12.41 7.82 C 12.41 5.865 10.71 4.675 8.33 4.675 C 3.74 4.675 0 7.735 0 10.965 Z" fill="#121212" fill-rule="evenodd" vector-effect="none" data-left="216.75" data-right="229.16" data-top="88.74" data-bottom="98.175" transform="translate(139.4, 84.065)"></path></g><g data-name="noteBody" ref-ids="note-2-1-1-1-3,note-with-index-2-1-1-1-2" pointer-events="painted" data-left="216.75" data-right="229.16" data-top="97.24" data-bottom="106.675"><path d="M 0 10.965 C 0 12.92 1.785 14.11 4.08 14.11 C 7.82 14.11 12.41 11.05 12.41 7.82 C 12.41 5.865 10.71 4.675 8.33 4.675 C 3.74 4.675 0 7.735 0 10.965 Z" fill="#121212" fill-rule="evenodd" vector-effect="none" data-left="216.75" data-right="229.16" data-top="97.24" data-bottom="106.675" transform="translate(139.4, 92.565)"></path></g><g data-name="noteBody" ref-ids="note-2-1-1-1-2,note-with-index-2-1-1-1-3" pointer-events="painted" data-left="216.75" data-right="229.16" data-top="105.74" data-bottom="115.175"><path d="M 0 10.965 C 0 12.92 1.785 14.11 4.08 14.11 C 7.82 14.11 12.41 11.05 12.41 7.82 C 12.41 5.865 10.71 4.675 8.33 4.675 C 3.74 4.675 0 7.735 0 10.965 Z" fill="#121212" fill-rule="evenodd" vector-effect="none" data-left="216.75" data-right="229.16" data-top="105.74" data-bottom="115.175" transform="translate(139.4, 101.065)"></path></g><g data-name="noteBody" ref-ids="note-2-1-1-1-1,note-with-index-2-1-1-1-4" pointer-events="painted" data-left="216.75" data-right="229.16" data-top="114.24" data-bottom="123.675"><path d="M 0 10.965 C 0 12.92 1.785 14.11 4.08 14.11 C 7.82 14.11 12.41 11.05 12.41 7.82 C 12.41 5.865 10.71 4.675 8.33 4.675 C 3.74 4.675 0 7.735 0 10.965 Z" fill="#121212" fill-rule="evenodd" vector-effect="none" data-left="216.75" data-right="229.16" data-top="114.24" data-bottom="123.675" transform="translate(139.4, 109.565)"></path></g></g></g><line data-name="stem" x1="151.215" y1="62.815" x2="151.215" y2="117.3" stroke="#121212" stroke-width="1.19" stroke-linejoin="round" stroke-linecap="round" stroke-dasharray="" vector-effect="none" ref-ids="stem-2-1-1-1" pointer-events="painted" data-left="228.565" data-right="228.565" data-top="62.815" data-bottom="117.3"></line></g></g><g data-name="crossVoiceUnitOnOneStave" data-left="216.75" data-right="229.16" data-top="194.565" data-bottom="246.925"><g data-name="singleUnit" ref-ids="all-units,all-units-on-line-1,unit-2-2-1-1,voice-1,voice-2-1,voice-2-2-1,voice-1-2-2-1,voice-in-measure-on-all-staves-1-2-1,voice-in-all-measures-and-on-all-staves-on-line-1-1" pointer-events="painted" data-left="216.75" data-right="229.16" data-top="194.565" data-bottom="246.925" transform="translate(9.35, 0)"><g data-name="singleUnitBodyParts" ref-ids="unit-2-2-1-1" pointer-events="painted" data-left="216.75" data-right="229.16" data-top="220.49" data-bottom="246.925"><g data-name="singleUnitBody" data-left="216.75" data-right="229.16" data-top="220.49" data-bottom="246.925"><g data-name="noteBody" ref-ids="note-2-2-1-1-3,note-with-index-2-2-1-1-1" pointer-events="painted" data-left="216.75" data-right="229.16" data-top="220.49" data-bottom="229.925"><path d="M 0 10.965 C 0 12.92 1.785 14.11 4.08 14.11 C 7.82 14.11 12.41 11.05 12.41 7.82 C 12.41 5.865 10.71 4.675 8.33 4.675 C 3.74 4.675 0 7.735 0 10.965 Z" fill="#121212" fill-rule="evenodd" vector-effect="none" data-left="216.75" data-right="229.16" data-top="220.49" data-bottom="229.925" transform="translate(139.4, 215.815)"></path></g><g data-name="noteBody" ref-ids="note-2-2-1-1-2,note-with-index-2-2-1-1-2" pointer-events="painted" data-left="216.75" data-right="229.16" data-top="228.99" data-bottom="238.425"><path d="M 0 10.965 C 0 12.92 1.785 14.11 4.08 14.11 C 7.82 14.11 12.41 11.05 12.41 7.82 C 12.41 5.865 10.71 4.675 8.33 4.675 C 3.74 4.675 0 7.735 0 10.965 Z" fill="#121212" fill-rule="evenodd" vector-effect="none" data-left="216.75" data-right="229.16" data-top="228.99" data-bottom="238.425" transform="translate(139.4, 224.315)"></path></g><g data-name="noteBody" ref-ids="note-2-2-1-1-1,note-with-index-2-2-1-1-3" pointer-events="painted" data-left="216.75" data-right="229.16" data-top="237.49" data-bottom="246.925"><path d="M 0 10.965 C 0 12.92 1.785 14.11 4.08 14.11 C 7.82 14.11 12.41 11.05 12.41 7.82 C 12.41 5.865 10.71 4.675 8.33 4.675 C 3.74 4.675 0 7.735 0 10.965 Z" fill="#121212" fill-rule="evenodd" vector-effect="none" data-left="216.75" data-right="229.16" data-top="237.49" data-bottom="246.925" transform="translate(139.4, 232.815)"></path></g></g></g><line data-name="stem" x1="151.215" y1="194.565" x2="151.215" y2="240.55" stroke="#121212" stroke-width="1.19" stroke-linejoin="round" stroke-linecap="round" stroke-dasharray="" vector-effect="none" ref-ids="stem-2-2-1-1" pointer-events="painted" data-left="228.565" data-right="228.565" data-top="194.565" data-bottom="240.55"></line></g></g></g><g data-name="crossStaveUnit" data-left="260.27" data-right="272.68" data-top="62.815" data-bottom="246.925" transform="translate(3.995, 0)"><g data-name="crossVoiceUnitOnOneStave" data-left="260.27" data-right="272.68" data-top="62.815" data-bottom="123.675"><g data-name="singleUnit" ref-ids="all-units,all-units-on-line-1,unit-2-1-1-2,voice-1,voice-1-1,voice-2-1-1,voice-1-2-1-1,voice-in-measure-on-all-staves-1-2-1,voice-in-all-measures-and-on-all-staves-on-line-1-1" pointer-events="painted" data-left="260.27" data-right="272.68" data-top="62.815" data-bottom="123.675" transform="translate(9.35, 0)"><g data-name="singleUnitBodyParts" ref-ids="unit-2-1-1-2" pointer-events="painted" data-left="260.27" data-right="272.68" data-top="88.74" data-bottom="123.675"><g data-name="singleUnitBody" data-left="260.27" data-right="272.68" data-top="88.74" data-bottom="123.675"><g data-name="noteBody" ref-ids="note-2-1-1-2-4,note-with-index-2-1-1-2-1" pointer-events="painted" data-left="260.27" data-right="272.68" data-top="88.74" data-bottom="98.175"><path d="M 0 10.965 C 0 12.92 1.785 14.11 4.08 14.11 C 7.82 14.11 12.41 11.05 12.41 7.82 C 12.41 5.865 10.71 4.675 8.33 4.675 C 3.74 4.675 0 7.735 0 10.965 Z" fill="#121212" fill-rule="evenodd" vector-effect="none" data-left="260.27" data-right="272.68" data-top="88.74" data-bottom="98.175" transform="translate(178.925, 84.065)"></path></g><g data-name="noteBody" ref-ids="note-2-1-1-2-3,note-with-index-2-1-1-2-2" pointer-events="painted" data-left="260.27" data-right="272.68" data-top="97.24" data-bottom="106.675"><path d="M 0 10.965 C 0 12.92 1.785 14.11 4.08 14.11 C 7.82 14.11 12.41 11.05 12.41 7.82 C 12.41 5.865 10.71 4.675 8.33 4.675 C 3.74 4.675 0 7.735 0 10.965 Z" fill="#121212" fill-rule="evenodd" vector-effect="none" data-left="260.27" data-right="272.68" data-top="97.24" data-bottom="106.675" transform="translate(178.925, 92.565)"></path></g><g data-name="noteBody" ref-ids="note-2-1-1-2-2,note-with-index-2-1-1-2-3" pointer-events="painted" data-left="260.27" data-right="272.68" data-top="105.74" data-bottom="115.175"><path d="M 0 10.965 C 0 12.92 1.785 14.11 4.08 14.11 C 7.82 14.11 12.41 11.05 12.41 7.82 C 12.41 5.865 10.71 4.675 8.33 4.675 C 3.74 4.675 0 7.735 0 10.965 Z" fill="#121212" fill-rule="evenodd" vector-effect="none" data-left="260.27" data-right="272.68" data-top="105.74" data-bottom="115.175" transform="translate(178.925, 101.065)"></path></g><g data-name="noteBody" ref-ids="note-2-1-1-2-1,note-with-index-2-1-1-2-4" pointer-events="painted" data-left="260.27" data-right="272.68" data-top="114.24" data-bottom="123.675"><path d="M 0 10.965 C 0 12.92 1.785 14.11 4.08 14.11 C 7.82 14.11 12.41 11.05 12.41 7.82 C 12.41 5.865 10.71 4.675 8.33 4.675 C 3.74 4.675 0 7.735 0 10.965 Z" fill="#121212" fill-rule="evenodd" vector-effect="none" data-left="260.27" data-right="272.68" data-top="114.24" data-bottom="123.675" transform="translate(178.925, 109.565)"></path></g></g></g><line data-name="stem" x1="190.74" y1="62.815" x2="190.74" y2="117.3" stroke="#121212" stroke-width="1.19" stroke-linejoin="round" stroke-linecap="round" stroke-dasharray="" vector-effect="none" ref-ids="stem-2-1-1-2" pointer-events="painted" data-left="272.085" data-right="272.085" data-top="62.815" data-bottom="117.3"></line></g></g><g data-name="crossVoiceUnitOnOneStave" data-left="260.27" data-right="272.68" data-top="194.565" data-bottom="246.925"><g data-name="singleUnit" ref-ids="all-units,all-units-on-line-1,unit-2-2-1-2,voice-1,voice-2-1,voice-2-2-1,voice-1-2-2-1,voice-in-measure-on-all-staves-1-2-1,voice-in-all-measures-and-on-all-staves-on-line-1-1" pointer-events="painted" data-left="260.27" data-right="272.68" data-top="194.565" data-bottom="246.925" transform="translate(9.35, 0)"><g data-name="singleUnitBodyParts" ref-ids="unit-2-2-1-2" pointer-events="painted" data-left="260.27" data-right="272.68" data-top="220.49" data-bottom="246.925"><g data-name="singleUnitBody" data-left="260.27" data-right="272.68" data-top="220.49" data-bottom="246.925"><g data-name="noteBody" ref-ids="note-2-2-1-2-3,note-with-index-2-2-1-2-1" pointer-events="painted" data-left="260.27" data-right="272.68" data-top="220.49" data-bottom="229.925"><path d="M 0 10.965 C 0 12.92 1.785 14.11 4.08 14.11 C 7.82 14.11 12.41 11.05 12.41 7.82 C 12.41 5.865 10.71 4.675 8.33 4.675 C 3.74 4.675 0 7.735 0 10.965 Z" fill="#121212" fill-rule="evenodd" vector-effect="none" data-left="260.27" data-right="272.68" data-top="220.49" data-bottom="229.925" transform="translate(178.925, 215.815)"></path></g><g data-name="noteBody" ref-ids="note-2-2-1-2-2,note-with-index-2-2-1-2-2" pointer-events="painted" data-left="260.27" data-right="272.68" data-top="228.99" data-bottom="238.425"><path d="M 0 10.965 C 0 12.92 1.785 14.11 4.08 14.11 C 7.82 14.11 12.41 11.05 12.41 7.82 C 12.41 5.865 10.71 4.675 8.33 4.675 C 3.74 4.675 0 7.735 0 10.965 Z" fill="#121212" fill-rule="evenodd" vector-effect="none" data-left="260.27" data-right="272.68" data-top="228.99" data-bottom="238.425" transform="translate(178.925, 224.315)"></path></g><g data-name="noteBody" ref-ids="note-2-2-1-2-1,note-with-index-2-2-1-2-3" pointer-events="painted" data-left="260.27" data-right="272.68" data-top="237.49" data-bottom="246.925"><path d="M 0 10.965 C 0 12.92 1.785 14.11 4.08 14.11 C 7.82 14.11 12.41 11.05 12.41 7.82 C 12.41 5.865 10.71 4.675 8.33 4.675 C 3.74 4.675 0 7.735 0 10.965 Z" fill="#121212" fill-rule="evenodd" vector-effect="none" data-left="260.27" data-right="272.68" data-top="237.49" data-bottom="246.925" transform="translate(178.925, 232.815)"></path></g></g></g><line data-name="stem" x1="190.74" y1="194.565" x2="190.74" y2="240.55" stroke="#121212" stroke-width="1.19" stroke-linejoin="round" stroke-linecap="round" stroke-dasharray="" vector-effect="none" ref-ids="stem-2-2-1-2" pointer-events="painted" data-left="272.085" data-right="272.085" data-top="194.565" data-bottom="240.55"></line></g></g></g><g data-name="crossStaveUnit" data-left="303.79" data-right="316.2" data-top="62.815" data-bottom="246.925" transform="translate(3.995, 0)"><g data-name="crossVoiceUnitOnOneStave" data-left="303.79" data-right="316.2" data-top="62.815" data-bottom="123.675"><g data-name="singleUnit" ref-ids="all-units,all-units-on-line-1,unit-2-1-1-3,voice-1,voice-1-1,voice-2-1-1,voice-1-2-1-1,voice-in-measure-on-all-staves-1-2-1,voice-in-all-measures-and-on-all-staves-on-line-1-1" pointer-events="painted" data-left="303.79" data-right="316.2" data-top="62.815" data-bottom="123.675" transform="translate(9.35, 0)"><g data-name="singleUnitBodyParts" ref-ids="unit-2-1-1-3" pointer-events="painted" data-left="303.79" data-right="316.2" data-top="88.74" data-bottom="123.675"><g data-name="singleUnitBody" data-left="303.79" data-right="316.2" data-top="88.74" data-bottom="123.675"><g data-name="noteBody" ref-ids="note-2-1-1-3-4,note-with-index-2-1-1-3-1" pointer-events="painted" data-left="303.79" data-right="316.2" data-top="88.74" data-bottom="98.175"><path d="M 0 10.965 C 0 12.92 1.785 14.11 4.08 14.11 C 7.82 14.11 12.41 11.05 12.41 7.82 C 12.41 5.865 10.71 4.675 8.33 4.675 C 3.74 4.675 0 7.735 0 10.965 Z" fill="#121212" fill-rule="evenodd" vector-effect="none" data-left="303.79" data-right="316.2" data-top="88.74" data-bottom="98.175" transform="translate(222.445, 84.065)"></path></g><g data-name="noteBody" ref-ids="note-2-1-1-3-3,note-with-index-2-1-1-3-2" pointer-events="painted" data-left="303.79" data-right="316.2" data-top="97.24" data-bottom="106.675"><path d="M 0 10.965 C 0 12.92 1.785 14.11 4.08 14.11 C 7.82 14.11 12.41 11.05 12.41 7.82 C 12.41 5.865 10.71 4.675 8.33 4.675 C 3.74 4.675 0 7.735 0 10.965 Z" fill="#121212" fill-rule="evenodd" vector-effect="none" data-left="303.79" data-right="316.2" data-top="97.24" data-bottom="106.675" transform="translate(222.445, 92.565)"></path></g><g data-name="noteBody" ref-ids="note-2-1-1-3-2,note-with-index-2-1-1-3-3" pointer-events="painted" data-left="303.79" data-right="316.2" data-top="105.74" data-bottom="115.175"><path d="M 0 10.965 C 0 12.92 1.785 14.11 4.08 14.11 C 7.82 14.11 12.41 11.05 12.41 7.82 C 12.41 5.865 10.71 4.675 8.33 4.675 C 3.74 4.675 0 7.735 0 10.965 Z" fill="#121212" fill-rule="evenodd" vector-effect="none" data-left="303.79" data-right="316.2" data-top="105.74" data-bottom="115.175" transform="translate(222.445, 101.065)"></path></g><g data-name="noteBody" ref-ids="note-2-1-1-3-1,note-with-index-2-1-1-3-4" pointer-events="painted" data-left="303.79" data-right="316.2" data-top="114.24" data-bottom="123.675"><path d="M 0 10.965 C 0 12.92 1.785 14.11 4.08 14.11 C 7.82 14.11 12.41 11.05 12.41 7.82 C 12.41 5.865 10.71 4.675 8.33 4.675 C 3.74 4.675 0 7.735 0 10.965 Z" fill="#121212" fill-rule="evenodd" vector-effect="none" data-left="303.79" data-right="316.2" data-top="114.24" data-bottom="123.675" transform="translate(222.445, 109.565)"></path></g></g></g><line data-name="stem" x1="234.26" y1="62.815" x2="234.26" y2="117.3" stroke="#121212" stroke-width="1.19" stroke-linejoin="round" stroke-linecap="round" stroke-dasharray="" vector-effect="none" ref-ids="stem-2-1-1-3" pointer-events="painted" data-left="315.605" data-right="315.605" data-top="62.815" data-bottom="117.3"></line></g></g><g data-name="crossVoiceUnitOnOneStave" data-left="303.79" data-right="316.2" data-top="194.565" data-bottom="246.925"><g data-name="singleUnit" ref-ids="all-units,all-units-on-line-1,unit-2-2-1-3,voice-1,voice-2-1,voice-2-2-1,voice-1-2-2-1,voice-in-measure-on-all-staves-1-2-1,voice-in-all-measures-and-on-all-staves-on-line-1-1" pointer-events="painted" data-left="303.79" data-right="316.2" data-top="194.565" data-bottom="246.925" transform="translate(9.35, 0)"><g data-name="singleUnitBodyParts" ref-ids="unit-2-2-1-3" pointer-events="painted" data-left="303.79" data-right="316.2" data-top="220.49" data-bottom="246.925"><g data-name="singleUnitBody" data-left="303.79" data-right="316.2" data-top="220.49" data-bottom="246.925"><g data-name="noteBody" ref-ids="note-2-2-1-3-3,note-with-index-2-2-1-3-1" pointer-events="painted" data-left="303.79" data-right="316.2" data-top="220.49" data-bottom="229.925"><path d="M 0 10.965 C 0 12.92 1.785 14.11 4.08 14.11 C 7.82 14.11 12.41 11.05 12.41 7.82 C 12.41 5.865 10.71 4.675 8.33 4.675 C 3.74 4.675 0 7.735 0 10.965 Z" fill="#121212" fill-rule="evenodd" vector-effect="none" data-left="303.79" data-right="316.2" data-top="220.49" data-bottom="229.925" transform="translate(222.445, 215.815)"></path></g><g data-name="noteBody" ref-ids="note-2-2-1-3-2,note-with-index-2-2-1-3-2" pointer-events="painted" data-left="303.79" data-right="316.2" data-top="228.99" data-bottom="238.425"><path d="M 0 10.965 C 0 12.92 1.785 14.11 4.08 14.11 C 7.82 14.11 12.41 11.05 12.41 7.82 C 12.41 5.865 10.71 4.675 8.33 4.675 C 3.74 4.675 0 7.735 0 10.965 Z" fill="#121212" fill-rule="evenodd" vector-effect="none" data-left="303.79" data-right="316.2" data-top="228.99" data-bottom="238.425" transform="translate(222.445, 224.315)"></path></g><g data-name="noteBody" ref-ids="note-2-2-1-3-1,note-with-index-2-2-1-3-3" pointer-events="painted" data-left="303.79" data-right="316.2" data-top="237.49" data-bottom="246.925"><path d="M 0 10.965 C 0 12.92 1.785 14.11 4.08 14.11 C 7.82 14.11 12.41 11.05 12.41 7.82 C 12.41 5.865 10.71 4.675 8.33 4.675 C 3.74 4.675 0 7.735 0 10.965 Z" fill="#121212" fill-rule="evenodd" vector-effect="none" data-left="303.79" data-right="316.2" data-top="237.49" data-bottom="246.925" transform="translate(222.445, 232.815)"></path></g></g></g><line data-name="stem" x1="234.26" y1="194.565" x2="234.26" y2="240.55" stroke="#121212" stroke-width="1.19" stroke-linejoin="round" stroke-linecap="round" stroke-dasharray="" vector-effect="none" ref-ids="stem-2-2-1-3" pointer-events="painted" data-left="315.605" data-right="315.605" data-top="194.565" data-bottom="240.55"></line></g></g></g></g></g></g></g></g><rect width="68" height="178.5" stroke="#FDF5E6" stroke-width="0.0085" stroke-linejoin="bevel" stroke-linecap="butt" fill="none" vector-effect="none" data-left="0" data-right="68" data-top="76.5" data-bottom="255" transform="translate(0, 76.5)"></rect><rect width="68" height="178.5" stroke="#FDF5E6" stroke-width="0.0085" stroke-linejoin="bevel" stroke-linecap="butt" fill="none" vector-effect="none" data-left="912" data-right="980" data-top="76.5" data-bottom="255" transform="translate(912, 76.5)"></rect></g></g></svg>