<svg xmlns="http://www.w3.org/2000/svg" version="1.1" xmlns:xlink="http://www.w3.org/1999/xlink" width="980" height="187" viewBox="0 0 980 187" shape-rendering="geometricPrecision" data-left="0" data-right="980" data-top="0" data-bottom="187"><g data-name="page" data-interval-between-stave-lines="8.5" data-font-color="#121212" data-left="0" data-right="980" data-top="0" data-bottom="187"><rect width="980" height="187" stroke="transparent" stroke-width="0.425" stroke-linejoin="" stroke-linecap="" fill="#FDF5E6" vector-effect="none" data-name="page-background" data-left="0" data-right="980" data-top="0" data-bottom="187"></rect><g data-name="pageWithoutBorder" data-left="0" data-right="980" data-top="54.315" data-bottom="128.5807103061"><g data-name="measures" data-left="68" data-right="912" data-top="54.315" data-bottom="128.5807103061" transform="translate(68, 0)"><g data-name="measure" ref-ids="measure-1,measure-1-1,line-1,every-measure-including-index-0,first-measure-including-index-0,last-measure,first-or-last-measure,last-measure-on-page" pointer-events="painted" data-left="68" data-right="912" data-top="54.315" data-bottom="128.5807103061"><g data-name="startBarLine" ref-ids="opening-barline-1" pointer-events="painted" data-left="68" data-right="69.955" data-top="75.99" data-bottom="111.01"><g data-name="stavesPiece" data-left="68" data-right="69.955" data-top="75.99" data-bottom="111.01"><g data-name="stavePiece" data-left="68" data-right="69.955" data-top="75.99" data-bottom="111.01"><path d="M 0 -0.51 L 1.955 -0.51 L 1.955 0.51 L 0 0.51 L 0 -0.51 M 0 7.99 L 1.955 7.99 L 1.955 9.01 L 0 9.01 L 0 7.99 M 0 16.49 L 1.955 16.49 L 1.955 17.51 L 0 17.51 L 0 16.49 M 0 24.99 L 1.955 24.99 L 1.955 26.01 L 0 26.01 L 0 24.99 M 0 33.49 L 1.955 33.49 L 1.955 34.51 L 0 34.51 L 0 33.49" fill="#343434" fill-rule="evenodd" vector-effect="none" data-left="68" data-right="69.955" data-top="75.99" data-bottom="111.01" transform="translate(0, 76.5)"></path></g></g><polyline points="0 75.99 1.955 75.99 1.955 111.01 0 111.01" fill="#121212" fill-rule="evenodd" vector-effect="none" data-left="68" data-right="69.955" data-top="75.99" data-bottom="111.01"></polyline></g><g data-name="clefsOnStaves" data-left="69.955" data-right="105.655" data-top="64.855" data-bottom="124.61"><g data-name="trebleClef" ref-ids="clef-1-1" pointer-events="painted" data-left="69.955" data-right="105.655" data-top="64.855" data-bottom="124.61"><g data-name="stavePiece" data-left="69.955" data-right="105.655" data-top="75.99" data-bottom="111.01"><path d="M 0 -0.51 L 35.7 -0.51 L 35.7 0.51 L 0 0.51 L 0 -0.51 M 0 7.99 L 35.7 7.99 L 35.7 9.01 L 0 9.01 L 0 7.99 M 0 16.49 L 35.7 16.49 L 35.7 17.51 L 0 17.51 L 0 16.49 M 0 24.99 L 35.7 24.99 L 35.7 26.01 L 0 26.01 L 0 24.99 M 0 33.49 L 35.7 33.49 L 35.7 34.51 L 0 34.51 L 0 33.49" fill="#343434" fill-rule="evenodd" vector-effect="none" data-left="69.955" data-right="105.655" data-top="75.99" data-bottom="111.01" transform="translate(1.955, 76.5)"></path></g><g data-name="clefShape" data-left="76.415" data-right="99.195" data-top="64.855" data-bottom="124.61" transform="translate(8.415, 0)"><path d="M 12.41 68.255 C 13.175 68.255 14.025 68.17 14.705 68.085 C 15.13 68 15.13 68 15.215 68.34 C 15.64 70.635 16.15 73.61 16.15 75.225 C 16.15 80.24 12.75 80.835 10.71 80.835 C 8.925 80.835 7.99 80.325 7.99 79.9 C 7.99 79.645 8.33 79.56 9.095 79.305 C 10.2 78.965 11.39 78.03 11.39 76.075 C 11.39 74.205 10.2 72.59 8.16 72.59 C 5.865 72.59 4.505 74.46 4.505 76.5 C 4.505 78.71 5.78 82.11 10.965 82.11 C 13.26 82.11 17.68 81.09 17.68 75.31 C 17.68 73.355 17 70.125 16.66 68 C 16.575 67.575 16.66 67.66 17.085 67.405 C 20.57 66.045 22.78 63.155 22.78 59.33 C 22.78 54.995 19.635 51.17 14.62 51.17 C 13.77 51.17 13.77 51.17 13.6 50.49 L 12.75 45.56 C 12.75 45.22 12.75 45.135 13.005 44.965 C 16.66 41.48 19.465 37.23 19.465 31.96 C 19.465 29.07 18.615 26.095 17.255 24.055 C 16.745 23.29 15.81 22.355 15.47 22.355 C 14.96 22.355 13.94 23.29 13.26 23.97 C 10.71 26.775 9.945 31.025 9.945 34.595 C 9.945 36.55 10.2 38.76 10.37 40.12 C 10.455 40.545 10.54 40.63 10.115 40.97 C 5.185 45.05 0 49.895 0 56.78 C 0 62.645 4.08 68.255 12.41 68.255 Z M 2.72 58.99 C 2.72 57.035 3.06 54.315 5.865 51.17 C 7.905 48.875 9.52 47.6 11.05 46.325 C 11.39 46.07 11.475 46.07 11.56 46.41 L 12.24 50.83 C 12.41 51.425 12.41 51.425 11.73 51.595 C 8.755 52.615 6.8 55.335 6.8 58.225 C 6.8 61.285 8.415 63.41 10.71 64.26 C 11.05 64.345 11.39 64.43 11.645 64.43 C 11.9 64.43 12.07 64.26 12.07 64.09 C 12.07 63.835 11.815 63.75 11.56 63.58 C 10.115 62.985 9.095 61.54 9.095 60.01 C 9.095 58.055 10.455 56.61 12.495 56.015 C 13.09 55.845 13.09 55.93 13.175 56.27 L 14.875 66.385 C 14.96 66.81 14.96 66.81 14.45 66.895 C 13.855 66.98 13.175 67.065 12.495 67.065 C 6.545 67.065 2.72 63.75 2.72 58.99 Z M 15.98 27.625 C 17.085 27.625 18.02 28.56 18.02 30.43 C 18.02 34.17 14.79 37.23 12.07 39.61 C 11.9 39.78 11.73 39.78 11.645 39.355 C 11.56 38.42 11.475 37.315 11.475 36.21 C 11.475 30.94 13.94 27.625 15.98 27.625 Z M 14.96 55.76 C 17.765 55.93 20.06 58.31 20.06 61.285 C 20.06 63.41 18.7 65.11 16.83 66.13 C 16.405 66.3 16.32 66.3 16.32 65.875 L 14.62 56.185 C 14.535 55.76 14.62 55.675 14.96 55.76 Z" fill="#121212" fill-rule="evenodd" vector-effect="none" data-left="76.415" data-right="99.195" data-top="64.855" data-bottom="124.61" transform="translate(0, 42.5)"></path></g></g></g><g data-name="keySignaturesOnStaves" data-left="105.655" data-right="105.655" data-top="75.99" data-bottom="111.01"><g data-name="keySignature" ref-ids="key-signature-1" pointer-events="painted" data-left="105.655" data-right="105.655" data-top="75.99" data-bottom="111.01"><g data-name="stavePiece" data-left="105.655" data-right="105.655" data-top="75.99" data-bottom="111.01"><path d="M 0 -0.51 L 0 -0.51 L 0 0.51 L 0 0.51 L 0 -0.51 M 0 7.99 L 0 7.99 L 0 9.01 L 0 9.01 L 0 7.99 M 0 16.49 L 0 16.49 L 0 17.51 L 0 17.51 L 0 16.49 M 0 24.99 L 0 24.99 L 0 26.01 L 0 26.01 L 0 24.99 M 0 33.49 L 0 33.49 L 0 34.51 L 0 34.51 L 0 33.49" fill="#343434" fill-rule="evenodd" vector-effect="none" data-left="105.655" data-right="105.655" data-top="75.99" data-bottom="111.01" transform="translate(37.655, 76.5)"></path></g></g></g><g data-name="barLine" ref-ids="closing-barline-1" pointer-events="painted" data-left="910.045" data-right="912" data-top="75.99" data-bottom="111.01" transform="translate(804.39, 0)"><g data-name="stavesPiece" data-left="910.045" data-right="912" data-top="75.99" data-bottom="111.01"><g data-name="stavePiece" data-left="910.045" data-right="912" data-top="75.99" data-bottom="111.01"><path d="M 0 -0.51 L 1.955 -0.51 L 1.955 0.51 L 0 0.51 L 0 -0.51 M 0 7.99 L 1.955 7.99 L 1.955 9.01 L 0 9.01 L 0 7.99 M 0 16.49 L 1.955 16.49 L 1.955 17.51 L 0 17.51 L 0 16.49 M 0 24.99 L 1.955 24.99 L 1.955 26.01 L 0 26.01 L 0 24.99 M 0 33.49 L 1.955 33.49 L 1.955 34.51 L 0 34.51 L 0 33.49" fill="#343434" fill-rule="evenodd" vector-effect="none" data-left="910.045" data-right="912" data-top="75.99" data-bottom="111.01" transform="translate(37.655, 76.5)"></path></g></g><polyline points="39.61 75.99 37.655 75.99 37.655 111.01 39.61 111.01" fill="#121212" fill-rule="evenodd" vector-effect="none" data-left="910.045" data-right="912" data-top="75.99" data-bottom="111.01"></polyline></g><g data-name="voicesWithStaveLines" data-left="105.655" data-right="910.045" data-top="54.315" data-bottom="111.01"><g data-name="stavesPiece" data-left="105.655" data-right="910.045" data-top="75.99" data-bottom="111.01"><g data-name="stavePiece" ref-ids="stave-lines-1-1,stave-1,stave-1-1,stave-1-1-1,stave-in-all-measures-on-line-1-1,all-staves-in-measure-1" pointer-events="painted" data-left="68" data-right="912" data-top="75.99" data-bottom="111.01"><path d="M 0 -0.51 L 804.39 -0.51 L 804.39 0.51 L 0 0.51 L 0 -0.51 M 0 7.99 L 804.39 7.99 L 804.39 9.01 L 0 9.01 L 0 7.99 M 0 16.49 L 804.39 16.49 L 804.39 17.51 L 0 17.51 L 0 16.49 M 0 24.99 L 804.39 24.99 L 804.39 26.01 L 0 26.01 L 0 24.99 M 0 33.49 L 804.39 33.49 L 804.39 34.51 L 0 34.51 L 0 33.49" fill="#343434" fill-rule="evenodd" vector-effect="none" data-left="105.655" data-right="910.045" data-top="75.99" data-bottom="111.01" transform="translate(37.655, 76.5)"></path></g></g><g data-name="voices" data-left="105.655" data-right="910.045" data-top="54.315" data-bottom="105.023875"><g data-name="voicesBody" data-left="105.655" data-right="910.045" data-top="54.315" data-bottom="128.5807103061"><g data-name="crossStaveUnit" data-left="120.57675" data-right="128.64325" data-top="98.891125" data-bottom="105.023875"><g data-name="crossVoiceUnitOnOneStave" data-left="120.57675" data-right="128.64325" data-top="98.891125" data-bottom="105.023875"><g data-name="singleUnit" ref-ids="all-units,all-units-on-line-1,unit-1-1-1-1,voice-1,voice-1-1,voice-1-1-1,voice-1-1-1-1,voice-in-measure-on-all-staves-1-1-1,voice-in-all-measures-and-on-all-staves-on-line-1-1" pointer-events="painted" data-left="120.57675" data-right="128.64325" data-top="79.162625" data-bottom="118.1988861224"><g data-name="singleUnitBodyParts" ref-ids="unit-1-1-1-1" pointer-events="painted" data-left="120.57675" data-right="128.64325" data-top="98.891125" data-bottom="105.023875"><g data-name="singleUnitBody" data-left="120.57675" data-right="128.64325" data-top="98.891125" data-bottom="105.023875"><g data-name="noteBody" ref-ids="note-1-1-1-1-1,note-with-index-1-1-1-1-1" pointer-events="painted" data-left="120.57675" data-right="128.64325" data-top="98.891125" data-bottom="105.023875" transform="translate(19.8135, 35.685125)scale(0.65, 0.65)"><path d="M 0 10.965 C 0 12.92 1.785 14.11 4.08 14.11 C 7.82 14.11 12.41 11.05 12.41 7.82 C 12.41 5.865 10.71 4.675 8.33 4.675 C 3.74 4.675 0 7.735 0 10.965 Z" fill="#121212" fill-rule="evenodd" vector-effect="none" data-left="118.405" data-right="130.815" data-top="97.24" data-bottom="106.675" transform="translate(50.405, 92.565)"></path></g></g></g><line data-name="stem" x1="60.2565" y1="98.891125" x2="60.2565" y2="100.880125" stroke="#121212" stroke-width="0.7735" stroke-linejoin="round" stroke-linecap="round" stroke-dasharray="" vector-effect="none" ref-ids="stem-1-1-1-1" pointer-events="painted" data-left="128.2565" data-right="128.2565" data-top="98.891125" data-bottom="100.880125"></line></g></g></g><g data-name="crossStaveUnit" data-left="144.585" data-right="152.6515" data-top="94.641125" data-bottom="100.773875"><g data-name="crossVoiceUnitOnOneStave" data-left="144.585" data-right="152.6515" data-top="94.641125" data-bottom="100.773875"><g data-name="singleUnit" ref-ids="all-units,all-units-on-line-1,unit-1-1-1-2,voice-1,voice-1-1,voice-1-1-1,voice-1-1-1-1,voice-in-measure-on-all-staves-1-1-1,voice-in-all-measures-and-on-all-staves-on-line-1-1,next-to-unit-connected-with-beam-1-1-1-1" pointer-events="painted" data-left="144.585" data-right="152.6515" data-top="77.207625" data-bottom="128.5807103061"><g data-name="singleUnitBodyParts" ref-ids="unit-1-1-1-2" pointer-events="painted" data-left="144.585" data-right="152.6515" data-top="94.641125" data-bottom="100.773875"><g data-name="singleUnitBody" data-left="144.585" data-right="152.6515" data-top="94.641125" data-bottom="100.773875"><g data-name="noteBody" ref-ids="note-1-1-1-2-1,note-with-index-1-1-1-2-1" pointer-events="painted" data-left="144.585" data-right="152.6515" data-top="94.641125" data-bottom="100.773875" transform="translate(28.2163875, 34.197625)scale(0.65, 0.65)"><path d="M 0 10.965 C 0 12.92 1.785 14.11 4.08 14.11 C 7.82 14.11 12.41 11.05 12.41 7.82 C 12.41 5.865 10.71 4.675 8.33 4.675 C 3.74 4.675 0 7.735 0 10.965 Z" fill="#121212" fill-rule="evenodd" vector-effect="none" data-left="142.41325" data-right="154.82325" data-top="92.99" data-bottom="102.425" transform="translate(74.41325, 88.315)"></path></g></g></g><line data-name="stem" x1="84.26475" y1="94.641125" x2="84.26475" y2="96.630125" stroke="#121212" stroke-width="0.7735" stroke-linejoin="round" stroke-linecap="round" stroke-dasharray="" vector-effect="none" ref-ids="stem-1-1-1-2" pointer-events="painted" data-left="152.26475" data-right="152.26475" data-top="94.641125" data-bottom="96.630125"></line></g></g></g><g data-name="crossStaveUnit" data-left="166.4215" data-right="178.8315" data-top="62.815" data-bottom="98.175"><g data-name="crossVoiceUnitOnOneStave" data-left="166.4215" data-right="178.8315" data-top="62.815" data-bottom="98.175"><g data-name="singleUnit" ref-ids="all-units,all-units-on-line-1,unit-1-1-1-3,voice-1,voice-1-1,voice-1-1-1,voice-1-1-1-1,voice-in-measure-on-all-staves-1-1-1,voice-in-all-measures-and-on-all-staves-on-line-1-1" pointer-events="painted" data-left="166.4215" data-right="178.8315" data-top="62.815" data-bottom="114.9620999747"><g data-name="singleUnitBodyParts" ref-ids="unit-1-1-1-3" pointer-events="painted" data-left="166.4215" data-right="178.8315" data-top="88.74" data-bottom="98.175"><g data-name="singleUnitBody" data-left="166.4215" data-right="178.8315" data-top="88.74" data-bottom="98.175"><g data-name="noteBody" ref-ids="note-1-1-1-3-1,note-with-index-1-1-1-3-1" pointer-events="painted" data-left="166.4215" data-right="178.8315" data-top="88.74" data-bottom="98.175"><path d="M 0 10.965 C 0 12.92 1.785 14.11 4.08 14.11 C 7.82 14.11 12.41 11.05 12.41 7.82 C 12.41 5.865 10.71 4.675 8.33 4.675 C 3.74 4.675 0 7.735 0 10.965 Z" fill="#121212" fill-rule="evenodd" vector-effect="none" data-left="166.4215" data-right="178.8315" data-top="88.74" data-bottom="98.175" transform="translate(98.4215, 84.065)"></path></g></g></g><line data-name="stem" x1="110.2365" y1="62.815" x2="110.2365" y2="91.8" stroke="#121212" stroke-width="1.19" stroke-linejoin="round" stroke-linecap="round" stroke-dasharray="" vector-effect="none" ref-ids="stem-1-1-1-3" pointer-events="painted" data-left="178.2365" data-right="178.2365" data-top="62.815" data-bottom="91.8"></line></g></g></g><g data-name="crossStaveUnit" data-left="194.77325" data-right="207.92275" data-top="64.869875" data-bottom="92.273875"><g data-name="crossVoiceUnitOnOneStave" data-left="194.77325" data-right="207.92275" data-top="64.869875" data-bottom="92.273875"><g data-name="singleUnit" ref-ids="all-units,all-units-on-line-1,unit-1-1-1-4,voice-1,voice-1-1,voice-1-1-1,voice-1-1-1-1,voice-in-measure-on-all-staves-1-1-1,voice-in-all-measures-and-on-all-staves-on-line-1-1,next-to-unit-not-connected-with-beam-1-1-1-2" pointer-events="painted" data-left="194.77325" data-right="207.92275" data-top="64.869875" data-bottom="92.273875"><g data-name="singleUnitBodyParts" ref-ids="unit-1-1-1-4" pointer-events="painted" data-left="194.77325" data-right="202.83975" data-top="86.141125" data-bottom="92.273875"><g data-name="singleUnitBody" data-left="194.77325" data-right="202.83975" data-top="86.141125" data-bottom="92.273875"><g data-name="noteBody" ref-ids="note-1-1-1-4-1,note-with-index-1-1-1-4-1" pointer-events="painted" data-left="194.77325" data-right="202.83975" data-top="86.141125" data-bottom="92.273875" transform="translate(45.782275, 31.222625)scale(0.65, 0.65)"><path d="M 0 10.965 C 0 12.92 1.785 14.11 4.08 14.11 C 7.82 14.11 12.41 11.05 12.41 7.82 C 12.41 5.865 10.71 4.675 8.33 4.675 C 3.74 4.675 0 7.735 0 10.965 Z" fill="#121212" fill-rule="evenodd" vector-effect="none" data-left="192.6015" data-right="205.0115" data-top="84.49" data-bottom="93.925" transform="translate(124.6015, 79.815)"></path></g></g></g><line data-name="stem" x1="134.453" y1="65.753875" x2="134.453" y2="88.130125" stroke="#121212" stroke-width="0.7735" stroke-linejoin="round" stroke-linecap="round" stroke-dasharray="" vector-effect="none" ref-ids="stem-1-1-1-4" pointer-events="painted" data-left="202.453" data-right="202.453" data-top="65.753875" data-bottom="88.130125"></line><g data-name="noteFlag" data-left="202.06625" data-right="207.92275" data-top="64.869875" data-bottom="82.9772373267" transform="translate(46.9231875, 23.01385625)scale(0.65, 0.65)"><path d="M 6.715 44.115 C 7.225 45.305 7.48 47.175 7.48 49.215 C 7.48 50.745 7.31 52.36 6.715 53.89 C 6.63 54.06 6.63 54.23 6.63 54.4 C 6.63 54.91 6.97 55.25 7.14 55.335 C 7.31 55.505 7.905 55.335 8.075 54.74 C 8.075 54.74 9.01 51.51 9.01 48.875 C 9.01 44.625 7.225 40.545 5.1 37.145 C 3.315 34.51 1.87 31.535 1.36 28.305 C 1.275 27.795 1.02 27.54 0.68 27.54 C 0.255 27.54 0 27.625 0 28.05 L 0 36.21 C 2.21 36.635 5.44 41.225 6.715 44.115 Z" fill="#121212" fill-rule="evenodd" vector-effect="none" data-left="202.06625" data-right="211.07625" data-top="64.393875" data-bottom="92.2513555026" transform="translate(134.06625, 36.853875)"></path></g></g></g></g><g data-name="crossStaveUnit" data-left="216.60975" data-right="229.01975" data-top="54.315" data-bottom="89.675"><g data-name="crossVoiceUnitOnOneStave" data-left="216.60975" data-right="229.01975" data-top="54.315" data-bottom="89.675"><g data-name="singleUnit" ref-ids="all-units,all-units-on-line-1,unit-1-1-1-5,voice-1,voice-1-1,voice-1-1-1,voice-1-1-1-1,voice-in-measure-on-all-staves-1-1-1,voice-in-all-measures-and-on-all-staves-on-line-1-1" pointer-events="painted" data-left="216.60975" data-right="229.01975" data-top="54.315" data-bottom="89.675"><g data-name="singleUnitBodyParts" ref-ids="unit-1-1-1-5" pointer-events="painted" data-left="216.60975" data-right="229.01975" data-top="80.24" data-bottom="89.675"><g data-name="singleUnitBody" data-left="216.60975" data-right="229.01975" data-top="80.24" data-bottom="89.675"><g data-name="noteBody" ref-ids="note-1-1-1-5-1,note-with-index-1-1-1-5-1" pointer-events="painted" data-left="216.60975" data-right="229.01975" data-top="80.24" data-bottom="89.675"><path d="M 0 10.965 C 0 12.92 1.785 14.11 4.08 14.11 C 7.82 14.11 12.41 11.05 12.41 7.82 C 12.41 5.865 10.71 4.675 8.33 4.675 C 3.74 4.675 0 7.735 0 10.965 Z" fill="#121212" fill-rule="evenodd" vector-effect="none" data-left="216.60975" data-right="229.01975" data-top="80.24" data-bottom="89.675" transform="translate(148.60975, 75.565)"></path></g></g></g><line data-name="stem" x1="160.42475" y1="54.315" x2="160.42475" y2="83.3" stroke="#121212" stroke-width="1.19" stroke-linejoin="round" stroke-linecap="round" stroke-dasharray="" vector-effect="none" ref-ids="stem-1-1-1-5" pointer-events="painted" data-left="228.42475" data-right="228.42475" data-top="54.315" data-bottom="83.3"></line></g></g></g></g></g></g></g><g data-name="additionalMeasureElementsOnPageLine" data-left="124.61" data-right="213.687875" data-top="71.669875" data-bottom="119.2101164208"><path d="M 60.2565 79.4786912958 L 84.26475 77.5236912958 L 84.26475 79.944625 L 60.2565 81.899625 Z" fill="#FDF5E6" fill-rule="evenodd" vector-effect="none" stroke="#FDF5E6" stroke-width="2.125" stroke-linejoin="miter" stroke-linecap="butt" data-left="128.2565" data-right="152.26475" data-top="77.5236912958" data-bottom="81.899625"></path><line data-name="stemForBeamedSingleUnit" x1="60.2565" y1="84.441125" x2="60.2565" y2="98.891125" stroke="#121212" stroke-width="0.7735" stroke-linejoin="miter" stroke-linecap="butt" stroke-dasharray="" vector-effect="none" ref-ids="stem-1-1-1-1" pointer-events="painted" data-left="128.2565" data-right="128.2565" data-top="84.441125" data-bottom="98.891125"></line><line data-name="stemForBeamedSingleUnit" x1="84.26475" y1="82.486125" x2="84.26475" y2="94.641125" stroke="#121212" stroke-width="0.7735" stroke-linejoin="miter" stroke-linecap="butt" stroke-dasharray="" vector-effect="none" ref-ids="stem-1-1-1-2" pointer-events="painted" data-left="152.26475" data-right="152.26475" data-top="82.486125" data-bottom="94.641125"></line><line data-name="beamColumn" x1="60.2565" y1="84.441125" x2="60.2565" y2="80.709625" stroke="#121212" stroke-width="0.7735" stroke-linejoin="bevel" stroke-linecap="butt" stroke-dasharray="" vector-effect="none" data-left="128.2565" data-right="128.2565" data-top="80.709625" data-bottom="84.441125"></line><line data-name="beamColumn" x1="84.26475" y1="82.486125" x2="84.26475" y2="78.754625" stroke="#121212" stroke-width="0.7735" stroke-linejoin="bevel" stroke-linecap="butt" stroke-dasharray="" vector-effect="none" data-left="152.26475" data-right="152.26475" data-top="78.754625" data-bottom="82.486125"></line><g data-name="beamLinesIncludingTremolo" data-left="128.2565" data-right="152.26475" data-top="77.5236912958" data-bottom="81.899625"><g data-name="beamLines" ref-ids="beam-1-1-1-1" pointer-events="painted" data-left="128.2565" data-right="152.26475" data-top="77.5236912958" data-bottom="81.899625"><path d="M 60.2565 81.899625 L 84.26475 79.944625 L 84.26475 77.5236912958 L 60.2565 79.4786912958 Z" fill="#121212" fill-rule="evenodd" vector-effect="none" stroke="#121212" stroke-width="0.7735" stroke-linejoin="bevel" stroke-linecap="butt" data-left="128.2565" data-right="152.26475" data-top="77.5236912958" data-bottom="81.899625"></path></g></g><line data-name="just line" x1="128.687875" y1="80.169875" x2="145.687875" y2="71.669875" stroke="#121212" stroke-width="1.445" stroke-linejoin="round" stroke-linecap="round" stroke-dasharray="" vector-effect="none" ref-ids="grace-crush-line-1-1-1-4" pointer-events="painted" data-left="196.687875" data-right="213.687875" data-top="71.669875" data-bottom="80.169875"></line><g data-name="slur" ref-ids="slur-1" pointer-events="painted" data-left="124.61" data-right="172.6265" data-top="101.15" data-bottom="119.2101164208"><path d="M 56.61 107.998875 C 56.6100258406 107.9989137608 56.6100566666 107.9989600002 56.610085 107.9990025 C 64.5113515816 125.8008080943 96.7251484199 118.9519494683 104.626415 101.1501275 C 104.6264433334 101.1500850001 104.6264999986 101.1500000021 104.6265 101.15 C 96.7251484199 120.0569494683 64.5113515816 126.9058080943 56.61 107.998875" fill="#121212" fill-rule="evenodd" vector-effect="none" stroke="#121212" stroke-width="1.0625" stroke-linejoin="round" stroke-linecap="round" data-left="124.61" data-right="172.6265" data-top="101.15" data-bottom="119.2101164208"></path></g></g></g><rect width="68" height="34" stroke="#FDF5E6" stroke-width="0.0085" stroke-linejoin="bevel" stroke-linecap="butt" fill="none" vector-effect="none" data-left="0" data-right="68" data-top="76.5" data-bottom="110.5" transform="translate(0, 76.5)"></rect><rect width="68" height="34" stroke="#FDF5E6" stroke-width="0.0085" stroke-linejoin="bevel" stroke-linecap="butt" fill="none" vector-effect="none" data-left="912" data-right="980" data-top="76.5" data-bottom="110.5" transform="translate(912, 76.5)"></rect></g></g></svg>