<svg xmlns="http://www.w3.org/2000/svg" version="1.1" xmlns:xlink="http://www.w3.org/1999/xlink" width="980" height="306" viewBox="0 0 980 306" shape-rendering="geometricPrecision" data-left="0" data-right="980" data-top="0" data-bottom="306"><g data-name="page" data-interval-between-stave-lines="8.5" data-font-color="#121212" data-left="0" data-right="980" data-top="0" data-bottom="306"><rect width="980" height="306" stroke="transparent" stroke-width="0.425" stroke-linejoin="" stroke-linecap="" fill="#FDF5E6" vector-effect="none" data-name="page-background" data-left="0" data-right="980" data-top="0" data-bottom="306"></rect><g data-name="pageWithoutBorder" data-left="0" data-right="980" data-top="58.905" data-bottom="242.59"><g data-name="measures" data-left="68" data-right="912" data-top="58.905" data-bottom="242.59" transform="translate(68, 0)"><g data-name="additionalStaveLinesOnPageLine" data-left="281.2" data-right="301.09" data-top="238" data-bottom="238"><line data-name="additionalStaveLine" x1="213.2" y1="238" x2="233.09" y2="238" stroke="#121212" stroke-width="1.445" stroke-linejoin="round" stroke-linecap="round" stroke-dasharray="" vector-effect="none" data-left="281.2" data-right="301.09" data-top="238" data-bottom="238"></line></g><g data-name="additionalStaveLinesOnPageLine" data-left="113.985" data-right="133.875" data-top="119" data-bottom="119"><line data-name="additionalStaveLine" x1="45.985" y1="119" x2="65.875" y2="119" stroke="#121212" stroke-width="1.445" stroke-linejoin="round" stroke-linecap="round" stroke-dasharray="" vector-effect="none" data-left="113.985" data-right="133.875" data-top="119" data-bottom="119"></line></g><g data-name="measure" ref-ids="measure-1,measure-1-1,line-1,every-measure-including-index-0,first-measure-including-index-0" pointer-events="painted" data-left="68" data-right="219.64" data-top="64.26" data-bottom="124.78"><g data-name="startBarLine" ref-ids="opening-barline-1" pointer-events="painted" data-left="68" data-right="69.955" data-top="75.99" data-bottom="111.01"><g data-name="stavesPiece" data-left="68" data-right="69.955" data-top="75.99" data-bottom="111.01"><g data-name="stavePiece" data-left="68" data-right="69.955" data-top="75.99" data-bottom="111.01"><path d="M 0 -0.51 L 1.955 -0.51 L 1.955 0.51 L 0 0.51 L 0 -0.51 M 0 7.99 L 1.955 7.99 L 1.955 9.01 L 0 9.01 L 0 7.99 M 0 16.49 L 1.955 16.49 L 1.955 17.51 L 0 17.51 L 0 16.49 M 0 24.99 L 1.955 24.99 L 1.955 26.01 L 0 26.01 L 0 24.99 M 0 33.49 L 1.955 33.49 L 1.955 34.51 L 0 34.51 L 0 33.49" fill="#343434" fill-rule="evenodd" vector-effect="none" data-left="68" data-right="69.955" data-top="75.99" data-bottom="111.01" transform="translate(0, 76.5)"></path></g></g><polyline points="0 75.99 1.955 75.99 1.955 111.01 0 111.01" fill="#121212" fill-rule="evenodd" vector-effect="none" data-left="68" data-right="69.955" data-top="75.99" data-bottom="111.01"></polyline></g><g data-name="clefsOnStaves" data-left="69.955" data-right="105.655" data-top="64.26" data-bottom="124.78"><g data-name="trebleClef" ref-ids="clef-1-1" pointer-events="painted" data-left="69.955" data-right="105.655" data-top="64.26" data-bottom="124.78"><g data-name="stavePiece" data-left="69.955" data-right="105.655" data-top="75.99" data-bottom="111.01"><path d="M 0 -0.51 L 35.7 -0.51 L 35.7 0.51 L 0 0.51 L 0 -0.51 M 0 7.99 L 35.7 7.99 L 35.7 9.01 L 0 9.01 L 0 7.99 M 0 16.49 L 35.7 16.49 L 35.7 17.51 L 0 17.51 L 0 16.49 M 0 24.99 L 35.7 24.99 L 35.7 26.01 L 0 26.01 L 0 24.99 M 0 33.49 L 35.7 33.49 L 35.7 34.51 L 0 34.51 L 0 33.49" fill="#343434" fill-rule="evenodd" vector-effect="none" data-left="69.955" data-right="105.655" data-top="75.99" data-bottom="111.01" transform="translate(1.955, 76.5)"></path></g><g data-name="clefShape" data-left="76.925" data-right="98.685" data-top="64.26" data-bottom="124.78" transform="translate(8.925, 0)"><path d="M 4.165 77.86 C 4.165 80.155 5.865 83.13 10.455 83.13 C 12.07 83.13 13.43 82.705 14.705 81.94 C 16.49 80.665 17 78.37 17 76.245 C 17 74.97 16.83 73.44 16.49 71.485 C 16.32 70.805 16.15 69.785 15.98 68.425 C 19.295 67.32 21.76 63.92 21.76 60.35 C 21.76 55.25 18.105 51.765 13.175 51.765 C 12.835 49.725 12.495 47.77 12.24 45.815 C 15.81 42.075 18.275 37.825 18.275 32.385 C 18.275 29.325 17.34 26.775 16.745 25.585 C 15.98 23.8 14.96 22.61 14.365 22.61 C 14.11 22.61 13.09 23.035 11.9 24.395 C 9.775 26.945 9.18 31.28 9.18 34.17 C 9.18 36.04 9.35 37.655 9.86 41.48 C 9.86 41.48 8.075 43.35 7.395 43.86 C 4.25 46.75 0 50.915 0 57.715 C 0 64.09 5.525 69.02 11.9 69.02 C 12.835 69.02 13.77 68.935 14.535 68.85 C 15.215 72.08 15.64 74.46 15.64 76.245 C 15.64 79.815 13.77 81.685 10.37 81.685 C 9.52 81.685 8.84 81.515 8.755 81.515 C 8.67 81.43 8.67 81.43 8.67 81.43 C 8.67 81.345 8.67 81.26 8.84 81.26 C 10.37 81.005 11.985 79.645 11.985 77.52 C 11.985 75.65 10.625 73.695 8.075 73.695 C 5.695 73.695 4.165 75.65 4.165 77.86 Z M 11.305 32.47 C 11.56 31.11 13.175 27.54 14.96 27.54 C 15.47 27.54 16.235 29.24 16.235 31.62 C 16.235 35.105 13.6 37.74 11.305 40.12 C 11.05 38.76 10.88 37.4 10.88 35.955 C 10.88 34.68 11.05 33.575 11.305 32.47 Z M 14.28 67.49 C 13.6 67.575 12.92 67.66 12.325 67.66 C 7.48 67.66 3.315 64.26 3.315 59.16 C 3.315 54.995 6.205 51.255 9.18 48.705 C 9.775 48.195 10.37 47.685 10.88 47.175 C 11.135 49.045 11.39 50.66 11.645 52.02 C 8.5 52.955 6.46 56.185 6.46 59.415 C 6.46 61.795 8.33 65.025 11.05 65.025 C 11.305 65.025 11.56 64.94 11.56 64.6 C 11.56 64.26 11.22 64.09 10.88 63.835 C 9.52 63.07 8.755 62.135 8.755 60.52 C 8.755 58.395 10.37 56.78 12.325 56.27 Z M 19.125 61.2 C 19.125 63.58 18.105 66.045 15.725 67.065 C 14.96 62.985 14.11 57.545 13.855 56.1 C 16.915 56.1 19.125 58.14 19.125 61.2 Z" fill="#121212" fill-rule="evenodd" vector-effect="none" data-left="76.925" data-right="98.685" data-top="64.26" data-bottom="124.78" transform="translate(0, 41.65)"></path></g></g></g><g data-name="keySignaturesOnStaves" data-left="105.655" data-right="105.655" data-top="75.99" data-bottom="111.01"><g data-name="keySignature" ref-ids="key-signature-1" pointer-events="painted" data-left="105.655" data-right="105.655" data-top="75.99" data-bottom="111.01"><g data-name="stavePiece" data-left="105.655" data-right="105.655" data-top="75.99" data-bottom="111.01"><path d="M 0 -0.51 L 0 -0.51 L 0 0.51 L 0 0.51 L 0 -0.51 M 0 7.99 L 0 7.99 L 0 9.01 L 0 9.01 L 0 7.99 M 0 16.49 L 0 16.49 L 0 17.51 L 0 17.51 L 0 16.49 M 0 24.99 L 0 24.99 L 0 26.01 L 0 26.01 L 0 24.99 M 0 33.49 L 0 33.49 L 0 34.51 L 0 34.51 L 0 33.49" fill="#343434" fill-rule="evenodd" vector-effect="none" data-left="105.655" data-right="105.655" data-top="75.99" data-bottom="111.01" transform="translate(37.655, 76.5)"></path></g></g></g><g data-name="voicesWithStaveLines" data-left="105.655" data-right="217.685" data-top="75.905" data-bottom="123.59"><g data-name="stavesPiece" data-left="105.655" data-right="217.685" data-top="75.99" data-bottom="111.01"><g data-name="stavePiece" ref-ids="stave-lines-1-1,stave-1,stave-1-1,stave-1-1-1,stave-in-all-measures-on-line-1-1,all-staves-in-measure-1" pointer-events="painted" data-left="68" data-right="219.64" data-top="75.99" data-bottom="111.01"><path d="M 0 -0.51 L 112.03 -0.51 L 112.03 0.51 L 0 0.51 L 0 -0.51 M 0 7.99 L 112.03 7.99 L 112.03 9.01 L 0 9.01 L 0 7.99 M 0 16.49 L 112.03 16.49 L 112.03 17.51 L 0 17.51 L 0 16.49 M 0 24.99 L 112.03 24.99 L 112.03 26.01 L 0 26.01 L 0 24.99 M 0 33.49 L 112.03 33.49 L 112.03 34.51 L 0 34.51 L 0 33.49" fill="#343434" fill-rule="evenodd" vector-effect="none" data-left="105.655" data-right="217.685" data-top="75.99" data-bottom="111.01" transform="translate(37.655, 76.5)"></path></g></g><g data-name="voices" data-left="105.655" data-right="217.685" data-top="75.905" data-bottom="123.59"><g data-name="voicesBody" data-left="105.655" data-right="217.685" data-top="75.905" data-bottom="123.59"><g data-name="crossStaveUnit" data-left="118.405" data-right="129.455" data-top="88.655" data-bottom="123.59"><g data-name="crossVoiceUnitOnOneStave" data-left="118.405" data-right="129.455" data-top="88.655" data-bottom="123.59"><g data-name="singleUnit" ref-ids="all-units,all-units-on-line-1,unit-1-1-1-1,voice-1,voice-1-1,voice-1-1-1,voice-1-1-1-1,voice-in-measure-on-all-staves-1-1-1,voice-in-all-measures-and-on-all-staves-on-line-1-1" pointer-events="painted" data-left="118.405" data-right="129.455" data-top="88.655" data-bottom="123.59"><g data-name="singleUnitBodyParts" ref-ids="unit-1-1-1-1" pointer-events="painted" data-left="118.405" data-right="129.455" data-top="114.58" data-bottom="123.59"><g data-name="singleUnitBody" data-left="118.405" data-right="129.455" data-top="114.58" data-bottom="123.59"><g data-name="noteBody" ref-ids="note-1-1-1-1-1,note-with-index-1-1-1-1-1" pointer-events="painted" data-left="118.405" data-right="129.455" data-top="114.58" data-bottom="123.59"><path d="M 0 10.455 C 0 11.9 1.02 13.515 3.825 13.515 C 7.31 13.515 11.05 10.625 11.05 7.65 C 11.05 5.61 9.35 4.505 7.225 4.505 C 3.91 4.505 0 7.31 0 10.455 Z" fill="#121212" fill-rule="evenodd" vector-effect="none" data-left="118.405" data-right="129.455" data-top="114.58" data-bottom="123.59" transform="translate(50.405, 110.075)"></path></g></g></g><line data-name="stem" x1="60.86" y1="88.655" x2="60.86" y2="117.215" stroke="#121212" stroke-width="1.19" stroke-linejoin="round" stroke-linecap="round" stroke-dasharray="" vector-effect="none" ref-ids="stem-1-1-1-1" pointer-events="painted" data-left="128.86" data-right="128.86" data-top="88.655" data-bottom="117.215"></line></g></g></g><g data-name="crossStaveUnit" data-left="143.225" data-right="154.275" data-top="84.405" data-bottom="119.34"><g data-name="crossVoiceUnitOnOneStave" data-left="143.225" data-right="154.275" data-top="84.405" data-bottom="119.34"><g data-name="singleUnit" ref-ids="all-units,all-units-on-line-1,unit-1-1-1-2,voice-1,voice-1-1,voice-1-1-1,voice-1-1-1-1,voice-in-measure-on-all-staves-1-1-1,voice-in-all-measures-and-on-all-staves-on-line-1-1" pointer-events="painted" data-left="143.225" data-right="154.275" data-top="84.405" data-bottom="119.34"><g data-name="singleUnitBodyParts" ref-ids="unit-1-1-1-2" pointer-events="painted" data-left="143.225" data-right="154.275" data-top="110.33" data-bottom="119.34"><g data-name="singleUnitBody" data-left="143.225" data-right="154.275" data-top="110.33" data-bottom="119.34"><g data-name="noteBody" ref-ids="note-1-1-1-2-1,note-with-index-1-1-1-2-1" pointer-events="painted" data-left="143.225" data-right="154.275" data-top="110.33" data-bottom="119.34"><path d="M 0 10.455 C 0 11.9 1.02 13.515 3.825 13.515 C 7.31 13.515 11.05 10.625 11.05 7.65 C 11.05 5.61 9.35 4.505 7.225 4.505 C 3.91 4.505 0 7.31 0 10.455 Z" fill="#121212" fill-rule="evenodd" vector-effect="none" data-left="143.225" data-right="154.275" data-top="110.33" data-bottom="119.34" transform="translate(75.225, 105.825)"></path></g></g></g><line data-name="stem" x1="85.68" y1="84.405" x2="85.68" y2="112.965" stroke="#121212" stroke-width="1.19" stroke-linejoin="round" stroke-linecap="round" stroke-dasharray="" vector-effect="none" ref-ids="stem-1-1-1-2" pointer-events="painted" data-left="153.68" data-right="153.68" data-top="84.405" data-bottom="112.965"></line></g></g></g><g data-name="crossStaveUnit" data-left="168.045" data-right="179.095" data-top="80.155" data-bottom="115.09"><g data-name="crossVoiceUnitOnOneStave" data-left="168.045" data-right="179.095" data-top="80.155" data-bottom="115.09"><g data-name="singleUnit" ref-ids="all-units,all-units-on-line-1,unit-1-1-1-3,voice-1,voice-1-1,voice-1-1-1,voice-1-1-1-1,voice-in-measure-on-all-staves-1-1-1,voice-in-all-measures-and-on-all-staves-on-line-1-1" pointer-events="painted" data-left="168.045" data-right="179.095" data-top="80.155" data-bottom="115.09"><g data-name="singleUnitBodyParts" ref-ids="unit-1-1-1-3" pointer-events="painted" data-left="168.045" data-right="179.095" data-top="106.08" data-bottom="115.09"><g data-name="singleUnitBody" data-left="168.045" data-right="179.095" data-top="106.08" data-bottom="115.09"><g data-name="noteBody" ref-ids="note-1-1-1-3-1,note-with-index-1-1-1-3-1" pointer-events="painted" data-left="168.045" data-right="179.095" data-top="106.08" data-bottom="115.09"><path d="M 0 10.455 C 0 11.9 1.02 13.515 3.825 13.515 C 7.31 13.515 11.05 10.625 11.05 7.65 C 11.05 5.61 9.35 4.505 7.225 4.505 C 3.91 4.505 0 7.31 0 10.455 Z" fill="#121212" fill-rule="evenodd" vector-effect="none" data-left="168.045" data-right="179.095" data-top="106.08" data-bottom="115.09" transform="translate(100.045, 101.575)"></path></g></g></g><line data-name="stem" x1="110.5" y1="80.155" x2="110.5" y2="108.715" stroke="#121212" stroke-width="1.19" stroke-linejoin="round" stroke-linecap="round" stroke-dasharray="" vector-effect="none" ref-ids="stem-1-1-1-3" pointer-events="painted" data-left="178.5" data-right="178.5" data-top="80.155" data-bottom="108.715"></line></g></g></g><g data-name="crossStaveUnit" data-left="192.865" data-right="203.915" data-top="75.905" data-bottom="110.84"><g data-name="crossVoiceUnitOnOneStave" data-left="192.865" data-right="203.915" data-top="75.905" data-bottom="110.84"><g data-name="singleUnit" ref-ids="all-units,all-units-on-line-1,unit-1-1-1-4,voice-1,voice-1-1,voice-1-1-1,voice-1-1-1-1,voice-in-measure-on-all-staves-1-1-1,voice-in-all-measures-and-on-all-staves-on-line-1-1" pointer-events="painted" data-left="192.865" data-right="203.915" data-top="75.905" data-bottom="110.84"><g data-name="singleUnitBodyParts" ref-ids="unit-1-1-1-4" pointer-events="painted" data-left="192.865" data-right="203.915" data-top="101.83" data-bottom="110.84"><g data-name="singleUnitBody" data-left="192.865" data-right="203.915" data-top="101.83" data-bottom="110.84"><g data-name="noteBody" ref-ids="note-1-1-1-4-1,note-with-index-1-1-1-4-1" pointer-events="painted" data-left="192.865" data-right="203.915" data-top="101.83" data-bottom="110.84"><path d="M 0 10.455 C 0 11.9 1.02 13.515 3.825 13.515 C 7.31 13.515 11.05 10.625 11.05 7.65 C 11.05 5.61 9.35 4.505 7.225 4.505 C 3.91 4.505 0 7.31 0 10.455 Z" fill="#121212" fill-rule="evenodd" vector-effect="none" data-left="192.865" data-right="203.915" data-top="101.83" data-bottom="110.84" transform="translate(124.865, 97.325)"></path></g></g></g><line data-name="stem" x1="135.32" y1="75.905" x2="135.32" y2="104.465" stroke="#121212" stroke-width="1.19" stroke-linejoin="round" stroke-linecap="round" stroke-dasharray="" vector-effect="none" ref-ids="stem-1-1-1-4" pointer-events="painted" data-left="203.32" data-right="203.32" data-top="75.905" data-bottom="104.465"></line></g></g></g></g></g></g><g data-name="barLine" ref-ids="closing-barline-1" pointer-events="painted" data-left="217.685" data-right="219.64" data-top="75.99" data-bottom="111.01"><g data-name="stavesPiece" data-left="217.685" data-right="219.64" data-top="75.99" data-bottom="111.01"><g data-name="stavePiece" data-left="217.685" data-right="219.64" data-top="75.99" data-bottom="111.01"><path d="M 0 -0.51 L 1.955 -0.51 L 1.955 0.51 L 0 0.51 L 0 -0.51 M 0 7.99 L 1.955 7.99 L 1.955 9.01 L 0 9.01 L 0 7.99 M 0 16.49 L 1.955 16.49 L 1.955 17.51 L 0 17.51 L 0 16.49 M 0 24.99 L 1.955 24.99 L 1.955 26.01 L 0 26.01 L 0 24.99 M 0 33.49 L 1.955 33.49 L 1.955 34.51 L 0 34.51 L 0 33.49" fill="#343434" fill-rule="evenodd" vector-effect="none" data-left="217.685" data-right="219.64" data-top="75.99" data-bottom="111.01" transform="translate(149.685, 76.5)"></path></g></g><polyline points="151.64 75.99 149.685 75.99 149.685 111.01 151.64 111.01" fill="#121212" fill-rule="evenodd" vector-effect="none" data-left="217.685" data-right="219.64" data-top="75.99" data-bottom="111.01"></polyline></g></g><g data-name="measure" ref-ids="measure-2,measure-1-2,line-1,every-measure,every-measure-including-index-0,last-measure,first-or-last-measure" pointer-events="painted" data-left="219.64" data-right="912" data-top="58.905" data-bottom="111.01"><g data-name="barLine" ref-ids="closing-barline-2" pointer-events="painted" data-left="910.045" data-right="912" data-top="75.99" data-bottom="111.01" transform="translate(690.405, 0)"><g data-name="stavesPiece" data-left="910.045" data-right="912" data-top="75.99" data-bottom="111.01"><g data-name="stavePiece" data-left="910.045" data-right="912" data-top="75.99" data-bottom="111.01"><path d="M 0 -0.51 L 1.955 -0.51 L 1.955 0.51 L 0 0.51 L 0 -0.51 M 0 7.99 L 1.955 7.99 L 1.955 9.01 L 0 9.01 L 0 7.99 M 0 16.49 L 1.955 16.49 L 1.955 17.51 L 0 17.51 L 0 16.49 M 0 24.99 L 1.955 24.99 L 1.955 26.01 L 0 26.01 L 0 24.99 M 0 33.49 L 1.955 33.49 L 1.955 34.51 L 0 34.51 L 0 33.49" fill="#343434" fill-rule="evenodd" vector-effect="none" data-left="910.045" data-right="912" data-top="75.99" data-bottom="111.01" transform="translate(151.64, 76.5)"></path></g></g><polyline points="153.595 75.99 151.64 75.99 151.64 111.01 153.595 111.01" fill="#121212" fill-rule="evenodd" vector-effect="none" data-left="910.045" data-right="912" data-top="75.99" data-bottom="111.01"></polyline></g><g data-name="voicesWithStaveLines" data-left="219.64" data-right="910.045" data-top="58.905" data-bottom="111.01"><g data-name="stavesPiece" data-left="219.64" data-right="910.045" data-top="75.99" data-bottom="111.01"><g data-name="stavePiece" ref-ids="stave-lines-2-1,stave-1,stave-2-1,stave-1-2-1,stave-in-all-measures-on-line-1-1,all-staves-in-measure-2" pointer-events="painted" data-left="219.64" data-right="912" data-top="75.99" data-bottom="111.01"><path d="M 0 -0.51 L 690.405 -0.51 L 690.405 0.51 L 0 0.51 L 0 -0.51 M 0 7.99 L 690.405 7.99 L 690.405 9.01 L 0 9.01 L 0 7.99 M 0 16.49 L 690.405 16.49 L 690.405 17.51 L 0 17.51 L 0 16.49 M 0 24.99 L 690.405 24.99 L 690.405 26.01 L 0 26.01 L 0 24.99 M 0 33.49 L 690.405 33.49 L 690.405 34.51 L 0 34.51 L 0 33.49" fill="#343434" fill-rule="evenodd" vector-effect="none" data-left="219.64" data-right="910.045" data-top="75.99" data-bottom="111.01" transform="translate(151.64, 76.5)"></path></g></g><g data-name="voices" data-left="219.64" data-right="910.045" data-top="58.905" data-bottom="106.59"><g data-name="voicesBody" data-left="219.64" data-right="910.045" data-top="58.905" data-bottom="106.59"><g data-name="crossStaveUnit" data-left="232.39" data-right="243.44" data-top="71.655" data-bottom="106.59"><g data-name="crossVoiceUnitOnOneStave" data-left="232.39" data-right="243.44" data-top="71.655" data-bottom="106.59"><g data-name="singleUnit" ref-ids="all-units,all-units-on-line-1,unit-2-1-1-1,voice-1,voice-1-1,voice-2-1-1,voice-1-2-1-1,voice-in-measure-on-all-staves-1-2-1,voice-in-all-measures-and-on-all-staves-on-line-1-1" pointer-events="painted" data-left="232.39" data-right="243.44" data-top="71.655" data-bottom="106.59"><g data-name="singleUnitBodyParts" ref-ids="unit-2-1-1-1" pointer-events="painted" data-left="232.39" data-right="243.44" data-top="97.58" data-bottom="106.59"><g data-name="singleUnitBody" data-left="232.39" data-right="243.44" data-top="97.58" data-bottom="106.59"><g data-name="noteBody" ref-ids="note-2-1-1-1-1,note-with-index-2-1-1-1-1" pointer-events="painted" data-left="232.39" data-right="243.44" data-top="97.58" data-bottom="106.59"><path d="M 0 10.455 C 0 11.9 1.02 13.515 3.825 13.515 C 7.31 13.515 11.05 10.625 11.05 7.65 C 11.05 5.61 9.35 4.505 7.225 4.505 C 3.91 4.505 0 7.31 0 10.455 Z" fill="#121212" fill-rule="evenodd" vector-effect="none" data-left="232.39" data-right="243.44" data-top="97.58" data-bottom="106.59" transform="translate(164.39, 93.075)"></path></g></g></g><line data-name="stem" x1="174.845" y1="71.655" x2="174.845" y2="100.215" stroke="#121212" stroke-width="1.19" stroke-linejoin="round" stroke-linecap="round" stroke-dasharray="" vector-effect="none" ref-ids="stem-2-1-1-1" pointer-events="painted" data-left="242.845" data-right="242.845" data-top="71.655" data-bottom="100.215"></line></g></g></g><g data-name="crossStaveUnit" data-left="257.21" data-right="268.26" data-top="67.405" data-bottom="102.34"><g data-name="crossVoiceUnitOnOneStave" data-left="257.21" data-right="268.26" data-top="67.405" data-bottom="102.34"><g data-name="singleUnit" ref-ids="all-units,all-units-on-line-1,unit-2-1-1-2,voice-1,voice-1-1,voice-2-1-1,voice-1-2-1-1,voice-in-measure-on-all-staves-1-2-1,voice-in-all-measures-and-on-all-staves-on-line-1-1" pointer-events="painted" data-left="257.21" data-right="268.26" data-top="67.405" data-bottom="102.34"><g data-name="singleUnitBodyParts" ref-ids="unit-2-1-1-2" pointer-events="painted" data-left="257.21" data-right="268.26" data-top="93.33" data-bottom="102.34"><g data-name="singleUnitBody" data-left="257.21" data-right="268.26" data-top="93.33" data-bottom="102.34"><g data-name="noteBody" ref-ids="note-2-1-1-2-1,note-with-index-2-1-1-2-1" pointer-events="painted" data-left="257.21" data-right="268.26" data-top="93.33" data-bottom="102.34"><path d="M 0 10.455 C 0 11.9 1.02 13.515 3.825 13.515 C 7.31 13.515 11.05 10.625 11.05 7.65 C 11.05 5.61 9.35 4.505 7.225 4.505 C 3.91 4.505 0 7.31 0 10.455 Z" fill="#121212" fill-rule="evenodd" vector-effect="none" data-left="257.21" data-right="268.26" data-top="93.33" data-bottom="102.34" transform="translate(189.21, 88.825)"></path></g></g></g><line data-name="stem" x1="199.665" y1="67.405" x2="199.665" y2="95.965" stroke="#121212" stroke-width="1.19" stroke-linejoin="round" stroke-linecap="round" stroke-dasharray="" vector-effect="none" ref-ids="stem-2-1-1-2" pointer-events="painted" data-left="267.665" data-right="267.665" data-top="67.405" data-bottom="95.965"></line></g></g></g><g data-name="crossStaveUnit" data-left="282.03" data-right="293.08" data-top="63.155" data-bottom="98.09"><g data-name="crossVoiceUnitOnOneStave" data-left="282.03" data-right="293.08" data-top="63.155" data-bottom="98.09"><g data-name="singleUnit" ref-ids="all-units,all-units-on-line-1,unit-2-1-1-3,voice-1,voice-1-1,voice-2-1-1,voice-1-2-1-1,voice-in-measure-on-all-staves-1-2-1,voice-in-all-measures-and-on-all-staves-on-line-1-1" pointer-events="painted" data-left="282.03" data-right="293.08" data-top="63.155" data-bottom="98.09"><g data-name="singleUnitBodyParts" ref-ids="unit-2-1-1-3" pointer-events="painted" data-left="282.03" data-right="293.08" data-top="89.08" data-bottom="98.09"><g data-name="singleUnitBody" data-left="282.03" data-right="293.08" data-top="89.08" data-bottom="98.09"><g data-name="noteBody" ref-ids="note-2-1-1-3-1,note-with-index-2-1-1-3-1" pointer-events="painted" data-left="282.03" data-right="293.08" data-top="89.08" data-bottom="98.09"><path d="M 0 10.455 C 0 11.9 1.02 13.515 3.825 13.515 C 7.31 13.515 11.05 10.625 11.05 7.65 C 11.05 5.61 9.35 4.505 7.225 4.505 C 3.91 4.505 0 7.31 0 10.455 Z" fill="#121212" fill-rule="evenodd" vector-effect="none" data-left="282.03" data-right="293.08" data-top="89.08" data-bottom="98.09" transform="translate(214.03, 84.575)"></path></g></g></g><line data-name="stem" x1="224.485" y1="63.155" x2="224.485" y2="91.715" stroke="#121212" stroke-width="1.19" stroke-linejoin="round" stroke-linecap="round" stroke-dasharray="" vector-effect="none" ref-ids="stem-2-1-1-3" pointer-events="painted" data-left="292.485" data-right="292.485" data-top="63.155" data-bottom="91.715"></line></g></g></g><g data-name="crossStaveUnit" data-left="306.85" data-right="317.9" data-top="58.905" data-bottom="93.84"><g data-name="crossVoiceUnitOnOneStave" data-left="306.85" data-right="317.9" data-top="58.905" data-bottom="93.84"><g data-name="singleUnit" ref-ids="all-units,all-units-on-line-1,unit-2-1-1-4,voice-1,voice-1-1,voice-2-1-1,voice-1-2-1-1,voice-in-measure-on-all-staves-1-2-1,voice-in-all-measures-and-on-all-staves-on-line-1-1" pointer-events="painted" data-left="306.85" data-right="317.9" data-top="58.905" data-bottom="93.84"><g data-name="singleUnitBodyParts" ref-ids="unit-2-1-1-4" pointer-events="painted" data-left="306.85" data-right="317.9" data-top="84.83" data-bottom="93.84"><g data-name="singleUnitBody" data-left="306.85" data-right="317.9" data-top="84.83" data-bottom="93.84"><g data-name="noteBody" ref-ids="note-2-1-1-4-1,note-with-index-2-1-1-4-1" pointer-events="painted" data-left="306.85" data-right="317.9" data-top="84.83" data-bottom="93.84"><path d="M 0 10.455 C 0 11.9 1.02 13.515 3.825 13.515 C 7.31 13.515 11.05 10.625 11.05 7.65 C 11.05 5.61 9.35 4.505 7.225 4.505 C 3.91 4.505 0 7.31 0 10.455 Z" fill="#121212" fill-rule="evenodd" vector-effect="none" data-left="306.85" data-right="317.9" data-top="84.83" data-bottom="93.84" transform="translate(238.85, 80.325)"></path></g></g></g><line data-name="stem" x1="249.305" y1="58.905" x2="249.305" y2="87.465" stroke="#121212" stroke-width="1.19" stroke-linejoin="round" stroke-linecap="round" stroke-dasharray="" vector-effect="none" ref-ids="stem-2-1-1-4" pointer-events="painted" data-left="317.305" data-right="317.305" data-top="58.905" data-bottom="87.465"></line></g></g></g></g></g></g></g><g data-name="measure" ref-ids="measure-3,measure-2-1,line-2,every-measure,every-measure-including-index-0,first-measure,first-or-last-measure,first-measure-including-index-0" pointer-events="painted" data-left="68" data-right="198.41" data-top="177.26" data-bottom="230.01"><g data-name="startBarLine" ref-ids="opening-barline-3" pointer-events="painted" data-left="68" data-right="69.955" data-top="194.99" data-bottom="230.01"><g data-name="stavesPiece" data-left="68" data-right="69.955" data-top="194.99" data-bottom="230.01"><g data-name="stavePiece" data-left="68" data-right="69.955" data-top="194.99" data-bottom="230.01"><path d="M 0 -0.51 L 1.955 -0.51 L 1.955 0.51 L 0 0.51 L 0 -0.51 M 0 7.99 L 1.955 7.99 L 1.955 9.01 L 0 9.01 L 0 7.99 M 0 16.49 L 1.955 16.49 L 1.955 17.51 L 0 17.51 L 0 16.49 M 0 24.99 L 1.955 24.99 L 1.955 26.01 L 0 26.01 L 0 24.99 M 0 33.49 L 1.955 33.49 L 1.955 34.51 L 0 34.51 L 0 33.49" fill="#343434" fill-rule="evenodd" vector-effect="none" data-left="68" data-right="69.955" data-top="194.99" data-bottom="230.01" transform="translate(0, 195.5)"></path></g></g><polyline points="0 194.99 1.955 194.99 1.955 230.01 0 230.01" fill="#121212" fill-rule="evenodd" vector-effect="none" data-left="68" data-right="69.955" data-top="194.99" data-bottom="230.01"></polyline></g><g data-name="measureNumber" data-left="69.955" data-right="84.425" data-top="177.26" data-bottom="230.01"><g data-name="stavesPiece" data-left="69.955" data-right="84.425" data-top="194.99" data-bottom="230.01"><g data-name="stavePiece" data-left="69.955" data-right="84.425" data-top="194.99" data-bottom="230.01"><path d="M 0 -0.51 L 14.47 -0.51 L 14.47 0.51 L 0 0.51 L 0 -0.51 M 0 7.99 L 14.47 7.99 L 14.47 9.01 L 0 9.01 L 0 7.99 M 0 16.49 L 14.47 16.49 L 14.47 17.51 L 0 17.51 L 0 16.49 M 0 24.99 L 14.47 24.99 L 14.47 26.01 L 0 26.01 L 0 24.99 M 0 33.49 L 14.47 33.49 L 14.47 34.51 L 0 34.51 L 0 33.49" fill="#343434" fill-rule="evenodd" vector-effect="none" data-left="69.955" data-right="84.425" data-top="194.99" data-bottom="230.01" transform="translate(1.955, 195.5)"></path></g></g><path data-name="text" fill="#121212" d="M9.15 201.35L9.15 201.35Q9.65 201.35 10.11 201.21Q10.57 201.07 10.91 200.74Q11.26 200.42 11.47 199.90Q11.68 199.37 11.68 198.61L11.68 198.61Q11.68 198.07 11.47 197.63Q11.26 197.20 10.86 196.89Q10.46 196.58 9.89 196.41Q9.31 196.24 8.60 196.24L8.60 196.24L8.06 196.24L8.06 195.38L8.60 195.38Q9.16 195.38 9.65 195.19Q10.13 195.01 10.50 194.67Q10.86 194.33 11.06 193.84Q11.27 193.35 11.27 192.75L11.27 192.75Q11.27 192.25 11.17 191.86Q11.07 191.47 10.85 191.20Q10.63 190.92 10.29 190.78Q9.94 190.64 9.45 190.64L9.45 190.64Q8.87 190.64 8.51 190.85Q8.14 191.05 7.93 191.40Q7.73 191.75 7.65 192.21Q7.58 192.67 7.58 193.17L7.58 193.17Q7.27 193.17 7.01 193.12Q6.74 193.07 6.54 192.94Q6.34 192.81 6.23 192.60Q6.12 192.39 6.12 192.07L6.12 192.07Q6.12 191.58 6.33 191.16Q6.54 190.74 6.96 190.43Q7.39 190.13 8.01 189.96Q8.63 189.78 9.45 189.78L9.45 189.78Q10.26 189.78 10.91 189.97Q11.57 190.15 12.04 190.49Q12.51 190.84 12.77 191.34Q13.02 191.84 13.02 192.49L13.02 192.49Q13.02 193.06 12.82 193.57Q12.62 194.08 12.25 194.49Q11.89 194.90 11.39 195.19Q10.89 195.48 10.30 195.62L10.30 195.62Q10.62 195.65 10.97 195.73Q11.33 195.81 11.68 195.96Q12.03 196.11 12.35 196.33Q12.67 196.56 12.91 196.88Q13.16 197.21 13.30 197.63Q13.45 198.06 13.45 198.63L13.45 198.63Q13.45 199.31 13.26 199.85Q13.08 200.39 12.76 200.79Q12.44 201.19 12.02 201.47Q11.60 201.75 11.11 201.93Q10.63 202.10 10.13 202.18Q9.62 202.26 9.13 202.26L9.13 202.26Q8.29 202.26 7.69 202.11Q7.08 201.95 6.69 201.70Q6.29 201.44 6.10 201.09Q5.92 200.75 5.92 200.38L5.92 200.38Q5.92 199.86 6.21 199.58Q6.50 199.29 6.99 199.29L6.99 199.29Q6.99 199.74 7.13 200.12Q7.28 200.49 7.55 200.77Q7.83 201.04 8.23 201.19Q8.63 201.35 9.15 201.35Z" text-value="3" vector-effect="none" stroke="#121212" stroke-width="0.51" stroke-linecap="" ref-ids="measure-numbers" pointer-events="painted" data-left="73.92" data-right="81.45" data-top="177.26" data-bottom="189.74" transform="translate(0, -12.52)"></path></g><g data-name="voicesWithStaveLines" data-left="84.425" data-right="196.455" data-top="177.905" data-bottom="230.01"><g data-name="stavesPiece" data-left="84.425" data-right="196.455" data-top="194.99" data-bottom="230.01"><g data-name="stavePiece" ref-ids="stave-lines-3-1,stave-1,stave-3-1,stave-2-1-1,stave-in-all-measures-on-line-2-1,all-staves-in-measure-3" pointer-events="painted" data-left="68" data-right="198.41" data-top="194.99" data-bottom="230.01"><path d="M 0 -0.51 L 112.03 -0.51 L 112.03 0.51 L 0 0.51 L 0 -0.51 M 0 7.99 L 112.03 7.99 L 112.03 9.01 L 0 9.01 L 0 7.99 M 0 16.49 L 112.03 16.49 L 112.03 17.51 L 0 17.51 L 0 16.49 M 0 24.99 L 112.03 24.99 L 112.03 26.01 L 0 26.01 L 0 24.99 M 0 33.49 L 112.03 33.49 L 112.03 34.51 L 0 34.51 L 0 33.49" fill="#343434" fill-rule="evenodd" vector-effect="none" data-left="84.425" data-right="196.455" data-top="194.99" data-bottom="230.01" transform="translate(16.425, 195.5)"></path></g></g><g data-name="voices" data-left="84.425" data-right="196.455" data-top="177.905" data-bottom="225.59"><g data-name="voicesBody" data-left="84.425" data-right="196.455" data-top="177.905" data-bottom="225.59"><g data-name="crossStaveUnit" data-left="97.175" data-right="108.225" data-top="177.905" data-bottom="212.84"><g data-name="crossVoiceUnitOnOneStave" data-left="97.175" data-right="108.225" data-top="177.905" data-bottom="212.84"><g data-name="singleUnit" ref-ids="all-units,all-units-on-line-2,unit-3-1-1-1,voice-1,voice-1-1,voice-3-1-1,voice-2-1-1-1,voice-in-measure-on-all-staves-2-1-1,voice-in-all-measures-and-on-all-staves-on-line-2-1" pointer-events="painted" data-left="97.175" data-right="108.225" data-top="177.905" data-bottom="212.84"><g data-name="singleUnitBodyParts" ref-ids="unit-3-1-1-1" pointer-events="painted" data-left="97.175" data-right="108.225" data-top="203.83" data-bottom="212.84"><g data-name="singleUnitBody" data-left="97.175" data-right="108.225" data-top="203.83" data-bottom="212.84"><g data-name="noteBody" ref-ids="note-3-1-1-1-1,note-with-index-3-1-1-1-1" pointer-events="painted" data-left="97.175" data-right="108.225" data-top="203.83" data-bottom="212.84"><path d="M 0 10.455 C 0 11.9 1.02 13.515 3.825 13.515 C 7.31 13.515 11.05 10.625 11.05 7.65 C 11.05 5.61 9.35 4.505 7.225 4.505 C 3.91 4.505 0 7.31 0 10.455 Z" fill="#121212" fill-rule="evenodd" vector-effect="none" data-left="97.175" data-right="108.225" data-top="203.83" data-bottom="212.84" transform="translate(29.175, 199.325)"></path></g></g></g><line data-name="stem" x1="39.63" y1="177.905" x2="39.63" y2="206.465" stroke="#121212" stroke-width="1.19" stroke-linejoin="round" stroke-linecap="round" stroke-dasharray="" vector-effect="none" ref-ids="stem-3-1-1-1" pointer-events="painted" data-left="107.63" data-right="107.63" data-top="177.905" data-bottom="206.465"></line></g></g></g><g data-name="crossStaveUnit" data-left="121.995" data-right="133.045" data-top="182.155" data-bottom="217.09"><g data-name="crossVoiceUnitOnOneStave" data-left="121.995" data-right="133.045" data-top="182.155" data-bottom="217.09"><g data-name="singleUnit" ref-ids="all-units,all-units-on-line-2,unit-3-1-1-2,voice-1,voice-1-1,voice-3-1-1,voice-2-1-1-1,voice-in-measure-on-all-staves-2-1-1,voice-in-all-measures-and-on-all-staves-on-line-2-1" pointer-events="painted" data-left="121.995" data-right="133.045" data-top="182.155" data-bottom="217.09"><g data-name="singleUnitBodyParts" ref-ids="unit-3-1-1-2" pointer-events="painted" data-left="121.995" data-right="133.045" data-top="208.08" data-bottom="217.09"><g data-name="singleUnitBody" data-left="121.995" data-right="133.045" data-top="208.08" data-bottom="217.09"><g data-name="noteBody" ref-ids="note-3-1-1-2-1,note-with-index-3-1-1-2-1" pointer-events="painted" data-left="121.995" data-right="133.045" data-top="208.08" data-bottom="217.09"><path d="M 0 10.455 C 0 11.9 1.02 13.515 3.825 13.515 C 7.31 13.515 11.05 10.625 11.05 7.65 C 11.05 5.61 9.35 4.505 7.225 4.505 C 3.91 4.505 0 7.31 0 10.455 Z" fill="#121212" fill-rule="evenodd" vector-effect="none" data-left="121.995" data-right="133.045" data-top="208.08" data-bottom="217.09" transform="translate(53.995, 203.575)"></path></g></g></g><line data-name="stem" x1="64.45" y1="182.155" x2="64.45" y2="210.715" stroke="#121212" stroke-width="1.19" stroke-linejoin="round" stroke-linecap="round" stroke-dasharray="" vector-effect="none" ref-ids="stem-3-1-1-2" pointer-events="painted" data-left="132.45" data-right="132.45" data-top="182.155" data-bottom="210.715"></line></g></g></g><g data-name="crossStaveUnit" data-left="146.815" data-right="157.865" data-top="186.405" data-bottom="221.34"><g data-name="crossVoiceUnitOnOneStave" data-left="146.815" data-right="157.865" data-top="186.405" data-bottom="221.34"><g data-name="singleUnit" ref-ids="all-units,all-units-on-line-2,unit-3-1-1-3,voice-1,voice-1-1,voice-3-1-1,voice-2-1-1-1,voice-in-measure-on-all-staves-2-1-1,voice-in-all-measures-and-on-all-staves-on-line-2-1" pointer-events="painted" data-left="146.815" data-right="157.865" data-top="186.405" data-bottom="221.34"><g data-name="singleUnitBodyParts" ref-ids="unit-3-1-1-3" pointer-events="painted" data-left="146.815" data-right="157.865" data-top="212.33" data-bottom="221.34"><g data-name="singleUnitBody" data-left="146.815" data-right="157.865" data-top="212.33" data-bottom="221.34"><g data-name="noteBody" ref-ids="note-3-1-1-3-1,note-with-index-3-1-1-3-1" pointer-events="painted" data-left="146.815" data-right="157.865" data-top="212.33" data-bottom="221.34"><path d="M 0 10.455 C 0 11.9 1.02 13.515 3.825 13.515 C 7.31 13.515 11.05 10.625 11.05 7.65 C 11.05 5.61 9.35 4.505 7.225 4.505 C 3.91 4.505 0 7.31 0 10.455 Z" fill="#121212" fill-rule="evenodd" vector-effect="none" data-left="146.815" data-right="157.865" data-top="212.33" data-bottom="221.34" transform="translate(78.815, 207.825)"></path></g></g></g><line data-name="stem" x1="89.27" y1="186.405" x2="89.27" y2="214.965" stroke="#121212" stroke-width="1.19" stroke-linejoin="round" stroke-linecap="round" stroke-dasharray="" vector-effect="none" ref-ids="stem-3-1-1-3" pointer-events="painted" data-left="157.27" data-right="157.27" data-top="186.405" data-bottom="214.965"></line></g></g></g><g data-name="crossStaveUnit" data-left="171.635" data-right="182.685" data-top="190.655" data-bottom="225.59"><g data-name="crossVoiceUnitOnOneStave" data-left="171.635" data-right="182.685" data-top="190.655" data-bottom="225.59"><g data-name="singleUnit" ref-ids="all-units,all-units-on-line-2,unit-3-1-1-4,voice-1,voice-1-1,voice-3-1-1,voice-2-1-1-1,voice-in-measure-on-all-staves-2-1-1,voice-in-all-measures-and-on-all-staves-on-line-2-1" pointer-events="painted" data-left="171.635" data-right="182.685" data-top="190.655" data-bottom="225.59"><g data-name="singleUnitBodyParts" ref-ids="unit-3-1-1-4" pointer-events="painted" data-left="171.635" data-right="182.685" data-top="216.58" data-bottom="225.59"><g data-name="singleUnitBody" data-left="171.635" data-right="182.685" data-top="216.58" data-bottom="225.59"><g data-name="noteBody" ref-ids="note-3-1-1-4-1,note-with-index-3-1-1-4-1" pointer-events="painted" data-left="171.635" data-right="182.685" data-top="216.58" data-bottom="225.59"><path d="M 0 10.455 C 0 11.9 1.02 13.515 3.825 13.515 C 7.31 13.515 11.05 10.625 11.05 7.65 C 11.05 5.61 9.35 4.505 7.225 4.505 C 3.91 4.505 0 7.31 0 10.455 Z" fill="#121212" fill-rule="evenodd" vector-effect="none" data-left="171.635" data-right="182.685" data-top="216.58" data-bottom="225.59" transform="translate(103.635, 212.075)"></path></g></g></g><line data-name="stem" x1="114.09" y1="190.655" x2="114.09" y2="219.215" stroke="#121212" stroke-width="1.19" stroke-linejoin="round" stroke-linecap="round" stroke-dasharray="" vector-effect="none" ref-ids="stem-3-1-1-4" pointer-events="painted" data-left="182.09" data-right="182.09" data-top="190.655" data-bottom="219.215"></line></g></g></g></g></g></g><g data-name="barLine" ref-ids="closing-barline-3" pointer-events="painted" data-left="196.455" data-right="198.41" data-top="194.99" data-bottom="230.01"><g data-name="stavesPiece" data-left="196.455" data-right="198.41" data-top="194.99" data-bottom="230.01"><g data-name="stavePiece" data-left="196.455" data-right="198.41" data-top="194.99" data-bottom="230.01"><path d="M 0 -0.51 L 1.955 -0.51 L 1.955 0.51 L 0 0.51 L 0 -0.51 M 0 7.99 L 1.955 7.99 L 1.955 9.01 L 0 9.01 L 0 7.99 M 0 16.49 L 1.955 16.49 L 1.955 17.51 L 0 17.51 L 0 16.49 M 0 24.99 L 1.955 24.99 L 1.955 26.01 L 0 26.01 L 0 24.99 M 0 33.49 L 1.955 33.49 L 1.955 34.51 L 0 34.51 L 0 33.49" fill="#343434" fill-rule="evenodd" vector-effect="none" data-left="196.455" data-right="198.41" data-top="194.99" data-bottom="230.01" transform="translate(128.455, 195.5)"></path></g></g><polyline points="130.41 194.99 128.455 194.99 128.455 230.01 130.41 230.01" fill="#121212" fill-rule="evenodd" vector-effect="none" data-left="196.455" data-right="198.41" data-top="194.99" data-bottom="230.01"></polyline></g></g><g data-name="measure" ref-ids="measure-4,measure-2-2,line-2,every-measure,every-measure-including-index-0,last-measure,first-or-last-measure,last-measure-on-page" pointer-events="painted" data-left="198.41" data-right="912" data-top="194.905" data-bottom="242.59"><g data-name="barLine" ref-ids="closing-barline-4" pointer-events="painted" data-left="910.045" data-right="912" data-top="194.99" data-bottom="230.01" transform="translate(711.635, 0)"><g data-name="stavesPiece" data-left="910.045" data-right="912" data-top="194.99" data-bottom="230.01"><g data-name="stavePiece" data-left="910.045" data-right="912" data-top="194.99" data-bottom="230.01"><path d="M 0 -0.51 L 1.955 -0.51 L 1.955 0.51 L 0 0.51 L 0 -0.51 M 0 7.99 L 1.955 7.99 L 1.955 9.01 L 0 9.01 L 0 7.99 M 0 16.49 L 1.955 16.49 L 1.955 17.51 L 0 17.51 L 0 16.49 M 0 24.99 L 1.955 24.99 L 1.955 26.01 L 0 26.01 L 0 24.99 M 0 33.49 L 1.955 33.49 L 1.955 34.51 L 0 34.51 L 0 33.49" fill="#343434" fill-rule="evenodd" vector-effect="none" data-left="910.045" data-right="912" data-top="194.99" data-bottom="230.01" transform="translate(130.41, 195.5)"></path></g></g><polyline points="132.365 194.99 130.41 194.99 130.41 230.01 132.365 230.01" fill="#121212" fill-rule="evenodd" vector-effect="none" data-left="910.045" data-right="912" data-top="194.99" data-bottom="230.01"></polyline></g><g data-name="voicesWithStaveLines" data-left="198.41" data-right="910.045" data-top="194.905" data-bottom="242.59"><g data-name="stavesPiece" data-left="198.41" data-right="910.045" data-top="194.99" data-bottom="230.01"><g data-name="stavePiece" ref-ids="stave-lines-4-1,stave-1,stave-4-1,stave-2-2-1,stave-in-all-measures-on-line-2-1,all-staves-in-measure-4" pointer-events="painted" data-left="198.41" data-right="912" data-top="194.99" data-bottom="230.01"><path d="M 0 -0.51 L 711.635 -0.51 L 711.635 0.51 L 0 0.51 L 0 -0.51 M 0 7.99 L 711.635 7.99 L 711.635 9.01 L 0 9.01 L 0 7.99 M 0 16.49 L 711.635 16.49 L 711.635 17.51 L 0 17.51 L 0 16.49 M 0 24.99 L 711.635 24.99 L 711.635 26.01 L 0 26.01 L 0 24.99 M 0 33.49 L 711.635 33.49 L 711.635 34.51 L 0 34.51 L 0 33.49" fill="#343434" fill-rule="evenodd" vector-effect="none" data-left="198.41" data-right="910.045" data-top="194.99" data-bottom="230.01" transform="translate(130.41, 195.5)"></path></g></g><g data-name="voices" data-left="198.41" data-right="910.045" data-top="194.905" data-bottom="242.59"><g data-name="voicesBody" data-left="198.41" data-right="910.045" data-top="194.905" data-bottom="242.59"><g data-name="crossStaveUnit" data-left="211.16" data-right="222.21" data-top="194.905" data-bottom="229.84"><g data-name="crossVoiceUnitOnOneStave" data-left="211.16" data-right="222.21" data-top="194.905" data-bottom="229.84"><g data-name="singleUnit" ref-ids="all-units,all-units-on-line-2,unit-4-1-1-1,voice-1,voice-1-1,voice-4-1-1,voice-2-2-1-1,voice-in-measure-on-all-staves-2-2-1,voice-in-all-measures-and-on-all-staves-on-line-2-1" pointer-events="painted" data-left="211.16" data-right="222.21" data-top="194.905" data-bottom="229.84"><g data-name="singleUnitBodyParts" ref-ids="unit-4-1-1-1" pointer-events="painted" data-left="211.16" data-right="222.21" data-top="220.83" data-bottom="229.84"><g data-name="singleUnitBody" data-left="211.16" data-right="222.21" data-top="220.83" data-bottom="229.84"><g data-name="noteBody" ref-ids="note-4-1-1-1-1,note-with-index-4-1-1-1-1" pointer-events="painted" data-left="211.16" data-right="222.21" data-top="220.83" data-bottom="229.84"><path d="M 0 10.455 C 0 11.9 1.02 13.515 3.825 13.515 C 7.31 13.515 11.05 10.625 11.05 7.65 C 11.05 5.61 9.35 4.505 7.225 4.505 C 3.91 4.505 0 7.31 0 10.455 Z" fill="#121212" fill-rule="evenodd" vector-effect="none" data-left="211.16" data-right="222.21" data-top="220.83" data-bottom="229.84" transform="translate(143.16, 216.325)"></path></g></g></g><line data-name="stem" x1="153.615" y1="194.905" x2="153.615" y2="223.465" stroke="#121212" stroke-width="1.19" stroke-linejoin="round" stroke-linecap="round" stroke-dasharray="" vector-effect="none" ref-ids="stem-4-1-1-1" pointer-events="painted" data-left="221.615" data-right="221.615" data-top="194.905" data-bottom="223.465"></line></g></g></g><g data-name="crossStaveUnit" data-left="235.98" data-right="247.03" data-top="199.155" data-bottom="234.09"><g data-name="crossVoiceUnitOnOneStave" data-left="235.98" data-right="247.03" data-top="199.155" data-bottom="234.09"><g data-name="singleUnit" ref-ids="all-units,all-units-on-line-2,unit-4-1-1-2,voice-1,voice-1-1,voice-4-1-1,voice-2-2-1-1,voice-in-measure-on-all-staves-2-2-1,voice-in-all-measures-and-on-all-staves-on-line-2-1" pointer-events="painted" data-left="235.98" data-right="247.03" data-top="199.155" data-bottom="234.09"><g data-name="singleUnitBodyParts" ref-ids="unit-4-1-1-2" pointer-events="painted" data-left="235.98" data-right="247.03" data-top="225.08" data-bottom="234.09"><g data-name="singleUnitBody" data-left="235.98" data-right="247.03" data-top="225.08" data-bottom="234.09"><g data-name="noteBody" ref-ids="note-4-1-1-2-1,note-with-index-4-1-1-2-1" pointer-events="painted" data-left="235.98" data-right="247.03" data-top="225.08" data-bottom="234.09"><path d="M 0 10.455 C 0 11.9 1.02 13.515 3.825 13.515 C 7.31 13.515 11.05 10.625 11.05 7.65 C 11.05 5.61 9.35 4.505 7.225 4.505 C 3.91 4.505 0 7.31 0 10.455 Z" fill="#121212" fill-rule="evenodd" vector-effect="none" data-left="235.98" data-right="247.03" data-top="225.08" data-bottom="234.09" transform="translate(167.98, 220.575)"></path></g></g></g><line data-name="stem" x1="178.435" y1="199.155" x2="178.435" y2="227.715" stroke="#121212" stroke-width="1.19" stroke-linejoin="round" stroke-linecap="round" stroke-dasharray="" vector-effect="none" ref-ids="stem-4-1-1-2" pointer-events="painted" data-left="246.435" data-right="246.435" data-top="199.155" data-bottom="227.715"></line></g></g></g><g data-name="crossStaveUnit" data-left="260.8" data-right="271.85" data-top="203.405" data-bottom="238.34"><g data-name="crossVoiceUnitOnOneStave" data-left="260.8" data-right="271.85" data-top="203.405" data-bottom="238.34"><g data-name="singleUnit" ref-ids="all-units,all-units-on-line-2,unit-4-1-1-3,voice-1,voice-1-1,voice-4-1-1,voice-2-2-1-1,voice-in-measure-on-all-staves-2-2-1,voice-in-all-measures-and-on-all-staves-on-line-2-1" pointer-events="painted" data-left="260.8" data-right="271.85" data-top="203.405" data-bottom="238.34"><g data-name="singleUnitBodyParts" ref-ids="unit-4-1-1-3" pointer-events="painted" data-left="260.8" data-right="271.85" data-top="229.33" data-bottom="238.34"><g data-name="singleUnitBody" data-left="260.8" data-right="271.85" data-top="229.33" data-bottom="238.34"><g data-name="noteBody" ref-ids="note-4-1-1-3-1,note-with-index-4-1-1-3-1" pointer-events="painted" data-left="260.8" data-right="271.85" data-top="229.33" data-bottom="238.34"><path d="M 0 10.455 C 0 11.9 1.02 13.515 3.825 13.515 C 7.31 13.515 11.05 10.625 11.05 7.65 C 11.05 5.61 9.35 4.505 7.225 4.505 C 3.91 4.505 0 7.31 0 10.455 Z" fill="#121212" fill-rule="evenodd" vector-effect="none" data-left="260.8" data-right="271.85" data-top="229.33" data-bottom="238.34" transform="translate(192.8, 224.825)"></path></g></g></g><line data-name="stem" x1="203.255" y1="203.405" x2="203.255" y2="231.965" stroke="#121212" stroke-width="1.19" stroke-linejoin="round" stroke-linecap="round" stroke-dasharray="" vector-effect="none" ref-ids="stem-4-1-1-3" pointer-events="painted" data-left="271.255" data-right="271.255" data-top="203.405" data-bottom="231.965"></line></g></g></g><g data-name="crossStaveUnit" data-left="285.62" data-right="296.67" data-top="207.655" data-bottom="242.59"><g data-name="crossVoiceUnitOnOneStave" data-left="285.62" data-right="296.67" data-top="207.655" data-bottom="242.59"><g data-name="singleUnit" ref-ids="all-units,all-units-on-line-2,unit-4-1-1-4,voice-1,voice-1-1,voice-4-1-1,voice-2-2-1-1,voice-in-measure-on-all-staves-2-2-1,voice-in-all-measures-and-on-all-staves-on-line-2-1" pointer-events="painted" data-left="285.62" data-right="296.67" data-top="207.655" data-bottom="242.59"><g data-name="singleUnitBodyParts" ref-ids="unit-4-1-1-4" pointer-events="painted" data-left="285.62" data-right="296.67" data-top="233.58" data-bottom="242.59"><g data-name="singleUnitBody" data-left="285.62" data-right="296.67" data-top="233.58" data-bottom="242.59"><g data-name="noteBody" ref-ids="note-4-1-1-4-1,note-with-index-4-1-1-4-1" pointer-events="painted" data-left="285.62" data-right="296.67" data-top="233.58" data-bottom="242.59"><path d="M 0 10.455 C 0 11.9 1.02 13.515 3.825 13.515 C 7.31 13.515 11.05 10.625 11.05 7.65 C 11.05 5.61 9.35 4.505 7.225 4.505 C 3.91 4.505 0 7.31 0 10.455 Z" fill="#121212" fill-rule="evenodd" vector-effect="none" data-left="285.62" data-right="296.67" data-top="233.58" data-bottom="242.59" transform="translate(217.62, 229.075)"></path></g></g></g><line data-name="stem" x1="228.075" y1="207.655" x2="228.075" y2="236.215" stroke="#121212" stroke-width="1.19" stroke-linejoin="round" stroke-linecap="round" stroke-dasharray="" vector-effect="none" ref-ids="stem-4-1-1-4" pointer-events="painted" data-left="296.075" data-right="296.075" data-top="207.655" data-bottom="236.215"></line></g></g></g></g></g></g></g></g><rect width="68" height="153" stroke="#FDF5E6" stroke-width="0.0085" stroke-linejoin="bevel" stroke-linecap="butt" fill="none" vector-effect="none" data-left="0" data-right="68" data-top="76.5" data-bottom="229.5" transform="translate(0, 76.5)"></rect><rect width="68" height="153" stroke="#FDF5E6" stroke-width="0.0085" stroke-linejoin="bevel" stroke-linecap="butt" fill="none" vector-effect="none" data-left="912" data-right="980" data-top="76.5" data-bottom="229.5" transform="translate(912, 76.5)"></rect></g></g></svg>